solid Untitled-5f8cb658
facet normal 0.0 0.0 -1.0
  outer loop
    vertex -17.386664873203227 4.658742811845377 0.0
    vertex -17.386664873203227 -4.658742811845371 0.0
    vertex -17.999999999999996 1.102182119232618e-15 0.0
  endloop
endfacet
facet normal 0.0 0.0 -1.0
  outer loop
    vertex -17.386664873203227 -4.658742811845371 0.0
    vertex -17.386664873203227 4.658742811845377 0.0
    vertex -15.588457268119894 9.0 0.0
  endloop
endfacet
facet normal 0.0 0.0 -1.0
  outer loop
    vertex -17.386664873203227 -4.658742811845371 0.0
    vertex -15.588457268119894 9.0 0.0
    vertex -15.588457268119894 -8.999999999999995 0.0
  endloop
endfacet
facet normal 0.0 0.0 -1.0
  outer loop
    vertex -15.588457268119894 -8.999999999999995 0.0
    vertex -15.588457268119894 9.0 0.0
    vertex -12.727922061357857 12.727922061357857 0.0
  endloop
endfacet
facet normal 0.0 0.0 -1.0
  outer loop
    vertex -15.588457268119894 -8.999999999999995 0.0
    vertex -12.727922061357857 12.727922061357857 0.0
    vertex -12.727922061357857 -12.727922061357853 0.0
  endloop
endfacet
facet normal 0.0 0.0 -1.0
  outer loop
    vertex -12.727922061357857 -12.727922061357853 0.0
    vertex -12.727922061357857 12.727922061357857 0.0
    vertex -8.999999999999998 15.588457268119894 0.0
  endloop
endfacet
facet normal 0.0 0.0 -1.0
  outer loop
    vertex -12.727922061357857 -12.727922061357853 0.0
    vertex -8.999999999999998 15.588457268119894 0.0
    vertex -11.0 6.735557395310442e-16 0.0
  endloop
endfacet
facet normal 0.0 0.0 -1.0
  outer loop
    vertex -11.0 6.735557395310442e-16 0.0
    vertex -8.999999999999998 15.588457268119894 0.0
    vertex -10.62518408917975 2.8470094961277304 0.0
  endloop
endfacet
facet normal 0.0 0.0 -1.0
  outer loop
    vertex -10.62518408917975 2.8470094961277304 0.0
    vertex -8.999999999999998 15.588457268119894 0.0
    vertex -9.526279441628823 5.500000000000001 0.0
  endloop
endfacet
facet normal 0.0 0.0 -1.0
  outer loop
    vertex -9.526279441628823 5.500000000000001 0.0
    vertex -8.999999999999998 15.588457268119894 0.0
    vertex -7.7781745930520225 7.7781745930520225 0.0
  endloop
endfacet
facet normal 0.0 0.0 -1.0
  outer loop
    vertex -7.7781745930520225 7.7781745930520225 0.0
    vertex -8.999999999999998 15.588457268119894 0.0
    vertex -4.658742811845372 17.386664873203227 0.0
  endloop
endfacet
facet normal 0.0 0.0 -1.0
  outer loop
    vertex -7.7781745930520225 7.7781745930520225 0.0
    vertex -4.658742811845372 17.386664873203227 0.0
    vertex -5.499999999999999 9.526279441628825 0.0
  endloop
endfacet
facet normal 0.0 0.0 -1.0
  outer loop
    vertex -5.499999999999999 9.526279441628825 0.0
    vertex -4.658742811845372 17.386664873203227 0.0
    vertex -2.8470094961277277 10.625184089179752 0.0
  endloop
endfacet
facet normal 0.0 0.0 -1.0
  outer loop
    vertex -2.8470094961277277 10.625184089179752 0.0
    vertex -4.658742811845372 17.386664873203227 0.0
    vertex 0.0 17.999999999999996 0.0
  endloop
endfacet
facet normal 0.0 0.0 -1.0
  outer loop
    vertex -2.8470094961277277 10.625184089179752 0.0
    vertex 0.0 17.999999999999996 0.0
    vertex 0.0 11.0 0.0
  endloop
endfacet
facet normal 0.0 0.0 -1.0
  outer loop
    vertex 0.0 11.0 0.0
    vertex 0.0 17.999999999999996 0.0
    vertex 4.658742811845388 17.386664873203223 0.0
  endloop
endfacet
facet normal 0.0 0.0 -1.0
  outer loop
    vertex 0.0 11.0 0.0
    vertex 4.658742811845388 17.386664873203223 0.0
    vertex 2.847009496127737 10.625184089179749 0.0
  endloop
endfacet
facet normal 0.0 0.0 -1.0
  outer loop
    vertex 2.847009496127737 10.625184089179749 0.0
    vertex 4.658742811845388 17.386664873203223 0.0
    vertex 5.500000000000004 9.526279441628823 0.0
  endloop
endfacet
facet normal 0.0 0.0 -1.0
  outer loop
    vertex 5.500000000000004 9.526279441628823 0.0
    vertex 4.658742811845388 17.386664873203223 0.0
    vertex 9.000000000000007 15.588457268119889 0.0
  endloop
endfacet
facet normal 0.0 0.0 -1.0
  outer loop
    vertex 5.500000000000004 9.526279441628823 0.0
    vertex 9.000000000000007 15.588457268119889 0.0
    vertex 7.778174593052023 7.778174593052021 0.0
  endloop
endfacet
facet normal 0.0 0.0 -1.0
  outer loop
    vertex 7.778174593052023 7.778174593052021 0.0
    vertex 9.000000000000007 15.588457268119889 0.0
    vertex 9.52627944162883 5.499999999999993 0.0
  endloop
endfacet
facet normal 0.0 0.0 -1.0
  outer loop
    vertex 9.52627944162883 5.499999999999993 0.0
    vertex 9.000000000000007 15.588457268119889 0.0
    vertex 12.727922061357857 12.72792206135785 0.0
  endloop
endfacet
facet normal 0.0 0.0 -1.0
  outer loop
    vertex 9.52627944162883 5.499999999999993 0.0
    vertex 12.727922061357857 12.72792206135785 0.0
    vertex 10.625184089179752 2.8470094961277232 0.0
  endloop
endfacet
facet normal 0.0 0.0 -1.0
  outer loop
    vertex 10.625184089179752 2.8470094961277232 0.0
    vertex 12.727922061357857 12.72792206135785 0.0
    vertex 11.0 -2.0206672185931327e-15 0.0
  endloop
endfacet
facet normal 0.0 0.0 -1.0
  outer loop
    vertex 11.0 -2.0206672185931327e-15 0.0
    vertex 12.727922061357857 12.72792206135785 0.0
    vertex 12.727922061357848 -12.727922061357862 0.0
  endloop
endfacet
facet normal 0.0 0.0 -1.0
  outer loop
    vertex 12.727922061357848 -12.727922061357862 0.0
    vertex 12.727922061357857 12.72792206135785 0.0
    vertex 15.58845726811989 -9.000000000000007 0.0
  endloop
endfacet
facet normal 0.0 0.0 -1.0
  outer loop
    vertex 15.58845726811989 -9.000000000000007 0.0
    vertex 12.727922061357857 12.72792206135785 0.0
    vertex 15.588457268119901 8.999999999999986 0.0
  endloop
endfacet
facet normal 0.0 0.0 -1.0
  outer loop
    vertex 15.58845726811989 -9.000000000000007 0.0
    vertex 15.588457268119901 8.999999999999986 0.0
    vertex 17.386664873203223 -4.658742811845387 0.0
  endloop
endfacet
facet normal 0.0 0.0 -1.0
  outer loop
    vertex 17.386664873203223 -4.658742811845387 0.0
    vertex 15.588457268119901 8.999999999999986 0.0
    vertex 17.38666487320323 4.658742811845364 0.0
  endloop
endfacet
facet normal 0.0 0.0 -1.0
  outer loop
    vertex 17.386664873203223 -4.658742811845387 0.0
    vertex 17.38666487320323 4.658742811845364 0.0
    vertex 17.999999999999996 -3.3065463576978533e-15 0.0
  endloop
endfacet
facet normal 0.0 0.0 -1.0
  outer loop
    vertex -11.0 6.735557395310442e-16 0.0
    vertex -9.000000000000005 -15.58845726811989 0.0
    vertex -12.727922061357857 -12.727922061357853 0.0
  endloop
endfacet
facet normal 0.0 0.0 -1.0
  outer loop
    vertex -9.000000000000005 -15.58845726811989 0.0
    vertex -11.0 6.735557395310442e-16 0.0
    vertex -10.625184089179752 -2.847009496127727 0.0
  endloop
endfacet
facet normal 0.0 0.0 -1.0
  outer loop
    vertex -9.000000000000005 -15.58845726811989 0.0
    vertex -10.625184089179752 -2.847009496127727 0.0
    vertex -9.526279441628825 -5.499999999999997 0.0
  endloop
endfacet
facet normal 0.0 0.0 -1.0
  outer loop
    vertex -9.000000000000005 -15.58845726811989 0.0
    vertex -9.526279441628825 -5.499999999999997 0.0
    vertex -7.7781745930520225 -7.7781745930520225 0.0
  endloop
endfacet
facet normal 0.0 0.0 -1.0
  outer loop
    vertex -9.000000000000005 -15.58845726811989 0.0
    vertex -7.7781745930520225 -7.7781745930520225 0.0
    vertex -4.658742811845378 -17.386664873203227 0.0
  endloop
endfacet
facet normal 0.0 0.0 -1.0
  outer loop
    vertex -4.658742811845378 -17.386664873203227 0.0
    vertex -7.7781745930520225 -7.7781745930520225 0.0
    vertex -5.5000000000000036 -9.526279441628823 0.0
  endloop
endfacet
facet normal 0.0 0.0 -1.0
  outer loop
    vertex -4.658742811845378 -17.386664873203227 0.0
    vertex -5.5000000000000036 -9.526279441628823 0.0
    vertex -2.8470094961277312 -10.62518408917975 0.0
  endloop
endfacet
facet normal 0.0 0.0 -1.0
  outer loop
    vertex -4.658742811845378 -17.386664873203227 0.0
    vertex -2.8470094961277312 -10.62518408917975 0.0
    vertex -2.204364238465236e-15 -17.999999999999996 0.0
  endloop
endfacet
facet normal 0.0 0.0 -1.0
  outer loop
    vertex -2.204364238465236e-15 -17.999999999999996 0.0
    vertex -2.8470094961277312 -10.62518408917975 0.0
    vertex -1.3471114790620884e-15 -11.0 0.0
  endloop
endfacet
facet normal 0.0 0.0 -1.0
  outer loop
    vertex -2.204364238465236e-15 -17.999999999999996 0.0
    vertex -1.3471114790620884e-15 -11.0 0.0
    vertex 4.658742811845366 -17.38666487320323 0.0
  endloop
endfacet
facet normal 0.0 0.0 -1.0
  outer loop
    vertex 4.658742811845366 -17.38666487320323 0.0
    vertex -1.3471114790620884e-15 -11.0 0.0
    vertex 2.8470094961277237 -10.625184089179752 0.0
  endloop
endfacet
facet normal 0.0 0.0 -1.0
  outer loop
    vertex 4.658742811845366 -17.38666487320323 0.0
    vertex 2.8470094961277237 -10.625184089179752 0.0
    vertex 5.499999999999997 -9.526279441628827 0.0
  endloop
endfacet
facet normal 0.0 0.0 -1.0
  outer loop
    vertex 4.658742811845366 -17.38666487320323 0.0
    vertex 5.499999999999997 -9.526279441628827 0.0
    vertex 8.999999999999993 -15.588457268119896 0.0
  endloop
endfacet
facet normal 0.0 0.0 -1.0
  outer loop
    vertex 8.999999999999993 -15.588457268119896 0.0
    vertex 5.499999999999997 -9.526279441628827 0.0
    vertex 7.778174593052018 -7.778174593052027 0.0
  endloop
endfacet
facet normal 0.0 0.0 -1.0
  outer loop
    vertex 8.999999999999993 -15.588457268119896 0.0
    vertex 7.778174593052018 -7.778174593052027 0.0
    vertex 9.526279441628823 -5.500000000000004 0.0
  endloop
endfacet
facet normal 0.0 0.0 -1.0
  outer loop
    vertex 8.999999999999993 -15.588457268119896 0.0
    vertex 9.526279441628823 -5.500000000000004 0.0
    vertex 12.727922061357848 -12.727922061357862 0.0
  endloop
endfacet
facet normal 0.0 0.0 -1.0
  outer loop
    vertex 12.727922061357848 -12.727922061357862 0.0
    vertex 9.526279441628823 -5.500000000000004 0.0
    vertex 10.625184089179749 -2.8470094961277366 0.0
  endloop
endfacet
facet normal 0.0 0.0 -1.0
  outer loop
    vertex 12.727922061357848 -12.727922061357862 0.0
    vertex 10.625184089179749 -2.8470094961277366 0.0
    vertex 11.0 -2.0206672185931327e-15 0.0
  endloop
endfacet
facet normal 0.1305261922200513 -0.9914448613738106 0.0
  outer loop
    vertex 0.0 11.0 1.9999999999999998
    vertex -2.8470094961277277 10.625184089179752 0.0
    vertex 0.0 11.0 0.0
  endloop
endfacet
facet normal 0.1305261922200513 -0.9914448613738106 0.0
  outer loop
    vertex -2.8470094961277277 10.625184089179752 0.0
    vertex 0.0 11.0 1.9999999999999998
    vertex -2.8470094961277277 10.625184089179752 1.9999999999999998
  endloop
endfacet
facet normal 0.38268343236509 -0.9238795325112867 0.0
  outer loop
    vertex -2.8470094961277277 10.625184089179752 1.9999999999999998
    vertex -5.499999999999999 9.526279441628825 0.0
    vertex -2.8470094961277277 10.625184089179752 0.0
  endloop
endfacet
facet normal 0.38268343236509 -0.9238795325112867 0.0
  outer loop
    vertex -5.499999999999999 9.526279441628825 0.0
    vertex -2.8470094961277277 10.625184089179752 1.9999999999999998
    vertex -5.499999999999999 9.526279441628825 1.9999999999999998
  endloop
endfacet
facet normal 0.6087614290087207 -0.7933533402912352 0.0
  outer loop
    vertex -5.499999999999999 9.526279441628825 1.9999999999999998
    vertex -7.7781745930520225 7.7781745930520225 0.0
    vertex -5.499999999999999 9.526279441628825 0.0
  endloop
endfacet
facet normal 0.6087614290087207 -0.7933533402912352 0.0
  outer loop
    vertex -7.7781745930520225 7.7781745930520225 0.0
    vertex -5.499999999999999 9.526279441628825 1.9999999999999998
    vertex -7.7781745930520225 7.7781745930520225 1.9999999999999998
  endloop
endfacet
facet normal 0.793353340291235 -0.6087614290087207 0.0
  outer loop
    vertex -7.7781745930520225 7.7781745930520225 0.0
    vertex -9.526279441628823 5.500000000000001 1.9999999999999998
    vertex -9.526279441628823 5.500000000000001 0.0
  endloop
endfacet
facet normal 0.793353340291235 -0.6087614290087207 0.0
  outer loop
    vertex -9.526279441628823 5.500000000000001 1.9999999999999998
    vertex -7.7781745930520225 7.7781745930520225 0.0
    vertex -7.7781745930520225 7.7781745930520225 1.9999999999999998
  endloop
endfacet
facet normal 0.9238795325112868 -0.3826834323650901 0.0
  outer loop
    vertex -9.526279441628823 5.500000000000001 0.0
    vertex -10.62518408917975 2.8470094961277304 1.9999999999999998
    vertex -10.62518408917975 2.8470094961277304 0.0
  endloop
endfacet
facet normal 0.9238795325112868 -0.3826834323650901 0.0
  outer loop
    vertex -10.62518408917975 2.8470094961277304 1.9999999999999998
    vertex -9.526279441628823 5.500000000000001 0.0
    vertex -9.526279441628823 5.500000000000001 1.9999999999999998
  endloop
endfacet
facet normal 0.9914448613738104 -0.13052619222005168 0.0
  outer loop
    vertex -10.62518408917975 2.8470094961277304 0.0
    vertex -11.0 6.735557395310442e-16 1.9999999999999998
    vertex -11.0 6.735557395310442e-16 0.0
  endloop
endfacet
facet normal 0.9914448613738104 -0.13052619222005168 0.0
  outer loop
    vertex -11.0 6.735557395310442e-16 1.9999999999999998
    vertex -10.62518408917975 2.8470094961277304 0.0
    vertex -10.62518408917975 2.8470094961277304 1.9999999999999998
  endloop
endfacet
facet normal 0.9914448613738105 0.1305261922200513 0.0
  outer loop
    vertex -11.0 6.735557395310442e-16 0.0
    vertex -10.625184089179752 -2.847009496127727 1.9999999999999998
    vertex -10.625184089179752 -2.847009496127727 0.0
  endloop
endfacet
facet normal 0.9914448613738105 0.1305261922200513 0.0
  outer loop
    vertex -10.625184089179752 -2.847009496127727 1.9999999999999998
    vertex -11.0 6.735557395310442e-16 0.0
    vertex -11.0 6.735557395310442e-16 1.9999999999999998
  endloop
endfacet
facet normal 0.9238795325112868 0.3826834323650901 0.0
  outer loop
    vertex -10.625184089179752 -2.847009496127727 0.0
    vertex -9.526279441628825 -5.499999999999997 1.9999999999999998
    vertex -9.526279441628825 -5.499999999999997 0.0
  endloop
endfacet
facet normal 0.9238795325112868 0.3826834323650901 0.0
  outer loop
    vertex -9.526279441628825 -5.499999999999997 1.9999999999999998
    vertex -10.625184089179752 -2.847009496127727 0.0
    vertex -10.625184089179752 -2.847009496127727 1.9999999999999998
  endloop
endfacet
facet normal 0.7933533402912354 0.6087614290087204 0.0
  outer loop
    vertex -9.526279441628825 -5.499999999999997 0.0
    vertex -7.7781745930520225 -7.7781745930520225 1.9999999999999998
    vertex -7.7781745930520225 -7.7781745930520225 0.0
  endloop
endfacet
facet normal 0.7933533402912354 0.6087614290087204 0.0
  outer loop
    vertex -7.7781745930520225 -7.7781745930520225 1.9999999999999998
    vertex -9.526279441628825 -5.499999999999997 0.0
    vertex -9.526279441628825 -5.499999999999997 1.9999999999999998
  endloop
endfacet
facet normal 0.6087614290087208 0.7933533402912352 0.0
  outer loop
    vertex -7.7781745930520225 -7.7781745930520225 1.9999999999999998
    vertex -5.5000000000000036 -9.526279441628823 0.0
    vertex -7.7781745930520225 -7.7781745930520225 0.0
  endloop
endfacet
facet normal 0.6087614290087208 0.7933533402912352 0.0
  outer loop
    vertex -5.5000000000000036 -9.526279441628823 0.0
    vertex -7.7781745930520225 -7.7781745930520225 1.9999999999999998
    vertex -5.5000000000000036 -9.526279441628823 1.9999999999999998
  endloop
endfacet
facet normal 0.3826834323650902 0.9238795325112866 0.0
  outer loop
    vertex -5.5000000000000036 -9.526279441628823 1.9999999999999998
    vertex -2.8470094961277312 -10.62518408917975 0.0
    vertex -5.5000000000000036 -9.526279441628823 0.0
  endloop
endfacet
facet normal 0.3826834323650902 0.9238795325112866 0.0
  outer loop
    vertex -2.8470094961277312 -10.62518408917975 0.0
    vertex -5.5000000000000036 -9.526279441628823 1.9999999999999998
    vertex -2.8470094961277312 -10.62518408917975 1.9999999999999998
  endloop
endfacet
facet normal 0.13052619222005168 0.9914448613738104 0.0
  outer loop
    vertex -2.8470094961277312 -10.62518408917975 1.9999999999999998
    vertex -1.3471114790620884e-15 -11.0 0.0
    vertex -2.8470094961277312 -10.62518408917975 0.0
  endloop
endfacet
facet normal 0.13052619222005168 0.9914448613738104 0.0
  outer loop
    vertex -1.3471114790620884e-15 -11.0 0.0
    vertex -2.8470094961277312 -10.62518408917975 1.9999999999999998
    vertex -1.3471114790620884e-15 -11.0 1.9999999999999998
  endloop
endfacet
facet normal -0.13052619222005143 0.9914448613738106 0.0
  outer loop
    vertex -1.3471114790620884e-15 -11.0 1.9999999999999998
    vertex 2.8470094961277237 -10.625184089179752 0.0
    vertex -1.3471114790620884e-15 -11.0 0.0
  endloop
endfacet
facet normal -0.13052619222005143 0.9914448613738106 0.0
  outer loop
    vertex 2.8470094961277237 -10.625184089179752 0.0
    vertex -1.3471114790620884e-15 -11.0 1.9999999999999998
    vertex 2.8470094961277237 -10.625184089179752 1.9999999999999998
  endloop
endfacet
facet normal -0.3826834323650893 0.923879532511287 0.0
  outer loop
    vertex 2.8470094961277237 -10.625184089179752 1.9999999999999998
    vertex 5.499999999999997 -9.526279441628827 0.0
    vertex 2.8470094961277237 -10.625184089179752 0.0
  endloop
endfacet
facet normal -0.3826834323650893 0.923879532511287 0.0
  outer loop
    vertex 5.499999999999997 -9.526279441628827 0.0
    vertex 2.8470094961277237 -10.625184089179752 1.9999999999999998
    vertex 5.499999999999997 -9.526279441628827 1.9999999999999998
  endloop
endfacet
facet normal -0.6087614290087204 0.7933533402912354 0.0
  outer loop
    vertex 5.499999999999997 -9.526279441628827 1.9999999999999998
    vertex 7.778174593052018 -7.778174593052027 0.0
    vertex 5.499999999999997 -9.526279441628827 0.0
  endloop
endfacet
facet normal -0.6087614290087204 0.7933533402912354 0.0
  outer loop
    vertex 7.778174593052018 -7.778174593052027 0.0
    vertex 5.499999999999997 -9.526279441628827 1.9999999999999998
    vertex 7.778174593052018 -7.778174593052027 1.9999999999999998
  endloop
endfacet
facet normal -0.7933533402912349 0.6087614290087212 0.0
  outer loop
    vertex 9.526279441628823 -5.500000000000004 1.9999999999999998
    vertex 7.778174593052018 -7.778174593052027 0.0
    vertex 7.778174593052018 -7.778174593052027 1.9999999999999998
  endloop
endfacet
facet normal -0.7933533402912349 0.6087614290087212 0.0
  outer loop
    vertex 7.778174593052018 -7.778174593052027 0.0
    vertex 9.526279441628823 -5.500000000000004 1.9999999999999998
    vertex 9.526279441628823 -5.500000000000004 0.0
  endloop
endfacet
facet normal -0.9238795325112866 0.3826834323650904 0.0
  outer loop
    vertex 10.625184089179749 -2.8470094961277366 1.9999999999999998
    vertex 9.526279441628823 -5.500000000000004 0.0
    vertex 9.526279441628823 -5.500000000000004 1.9999999999999998
  endloop
endfacet
facet normal -0.9238795325112866 0.3826834323650904 0.0
  outer loop
    vertex 9.526279441628823 -5.500000000000004 0.0
    vertex 10.625184089179749 -2.8470094961277366 1.9999999999999998
    vertex 10.625184089179749 -2.8470094961277366 0.0
  endloop
endfacet
facet normal -0.9914448613738104 0.13052619222005193 0.0
  outer loop
    vertex 11.0 -2.0206672185931327e-15 1.9999999999999998
    vertex 10.625184089179749 -2.8470094961277366 0.0
    vertex 10.625184089179749 -2.8470094961277366 1.9999999999999998
  endloop
endfacet
facet normal -0.9914448613738104 0.13052619222005193 0.0
  outer loop
    vertex 10.625184089179749 -2.8470094961277366 0.0
    vertex 11.0 -2.0206672185931327e-15 1.9999999999999998
    vertex 11.0 -2.0206672185931327e-15 0.0
  endloop
endfacet
facet normal -0.9914448613738106 -0.1305261922200514 -0.0
  outer loop
    vertex 10.625184089179752 2.8470094961277232 1.9999999999999998
    vertex 11.0 -2.0206672185931327e-15 0.0
    vertex 11.0 -2.0206672185931327e-15 1.9999999999999998
  endloop
endfacet
facet normal -0.9914448613738106 -0.1305261922200514 -0.0
  outer loop
    vertex 11.0 -2.0206672185931327e-15 0.0
    vertex 10.625184089179752 2.8470094961277232 1.9999999999999998
    vertex 10.625184089179752 2.8470094961277232 0.0
  endloop
endfacet
facet normal -0.9238795325112871 -0.3826834323650889 -0.0
  outer loop
    vertex 9.52627944162883 5.499999999999993 1.9999999999999998
    vertex 10.625184089179752 2.8470094961277232 0.0
    vertex 10.625184089179752 2.8470094961277232 1.9999999999999998
  endloop
endfacet
facet normal -0.9238795325112871 -0.3826834323650889 -0.0
  outer loop
    vertex 10.625184089179752 2.8470094961277232 0.0
    vertex 9.52627944162883 5.499999999999993 1.9999999999999998
    vertex 9.52627944162883 5.499999999999993 0.0
  endloop
endfacet
facet normal -0.7933533402912353 -0.6087614290087204 -0.0
  outer loop
    vertex 7.778174593052023 7.778174593052021 1.9999999999999998
    vertex 9.52627944162883 5.499999999999993 0.0
    vertex 9.52627944162883 5.499999999999993 1.9999999999999998
  endloop
endfacet
facet normal -0.7933533402912353 -0.6087614290087204 -0.0
  outer loop
    vertex 9.52627944162883 5.499999999999993 0.0
    vertex 7.778174593052023 7.778174593052021 1.9999999999999998
    vertex 7.778174593052023 7.778174593052021 0.0
  endloop
endfacet
facet normal -0.6087614290087211 -0.793353340291235 -0.0
  outer loop
    vertex 7.778174593052023 7.778174593052021 1.9999999999999998
    vertex 5.500000000000004 9.526279441628823 0.0
    vertex 7.778174593052023 7.778174593052021 0.0
  endloop
endfacet
facet normal -0.6087614290087211 -0.793353340291235 -0.0
  outer loop
    vertex 5.500000000000004 9.526279441628823 0.0
    vertex 7.778174593052023 7.778174593052021 1.9999999999999998
    vertex 5.500000000000004 9.526279441628823 1.9999999999999998
  endloop
endfacet
facet normal -0.3826834323650904 -0.9238795325112865 -0.0
  outer loop
    vertex 5.500000000000004 9.526279441628823 1.9999999999999998
    vertex 2.847009496127737 10.625184089179749 0.0
    vertex 5.500000000000004 9.526279441628823 0.0
  endloop
endfacet
facet normal -0.3826834323650904 -0.9238795325112865 -0.0
  outer loop
    vertex 2.847009496127737 10.625184089179749 0.0
    vertex 5.500000000000004 9.526279441628823 1.9999999999999998
    vertex 2.847009496127737 10.625184089179749 1.9999999999999998
  endloop
endfacet
facet normal -0.13052619222005182 -0.9914448613738104 -0.0
  outer loop
    vertex 2.847009496127737 10.625184089179749 1.9999999999999998
    vertex 0.0 11.0 0.0
    vertex 2.847009496127737 10.625184089179749 0.0
  endloop
endfacet
facet normal -0.13052619222005182 -0.9914448613738104 -0.0
  outer loop
    vertex 0.0 11.0 0.0
    vertex 2.847009496127737 10.625184089179749 1.9999999999999998
    vertex 0.0 11.0 1.9999999999999998
  endloop
endfacet
facet normal -0.9914448613738105 -0.13052619222005152 -4.465257319332761e-16
  outer loop
    vertex -17.38666487320323 -4.658742811845367 1.9999999999999998
    vertex -17.999999999999996 1.102182119232618e-15 0.0
    vertex -17.386664873203227 -4.658742811845371 0.0
  endloop
endfacet
facet normal -0.9914448613738105 -0.13052619222005152 -4.465257319332761e-16
  outer loop
    vertex -17.999999999999996 1.102182119232618e-15 0.0
    vertex -17.38666487320323 -4.658742811845367 1.9999999999999998
    vertex -17.999999999999996 5.0989850078831815e-15 1.9999999999999998
  endloop
endfacet
facet normal 0.13052619222005254 0.9914448613738103 -9.686392494435178e-16
  outer loop
    vertex 3.6383151586134974e-14 17.999999999999996 1.9999999999999998
    vertex 4.658742811845388 17.386664873203223 0.0
    vertex 0.0 17.999999999999996 0.0
  endloop
endfacet
facet normal 0.13052619222005254 0.9914448613738103 -9.686392494435178e-16
  outer loop
    vertex 4.658742811845388 17.386664873203223 0.0
    vertex 3.6383151586134974e-14 17.999999999999996 1.9999999999999998
    vertex 4.658742811845403 17.38666487320322 1.9999999999999998
  endloop
endfacet
facet normal 0.38268343236509117 0.9238795325112862 -1.3984588495286501e-16
  outer loop
    vertex 4.658742811845403 17.38666487320322 1.9999999999999998
    vertex 9.000000000000007 15.588457268119889 0.0
    vertex 4.658742811845388 17.386664873203223 0.0
  endloop
endfacet
facet normal 0.38268343236509117 0.9238795325112862 -1.3984588495286501e-16
  outer loop
    vertex 9.000000000000007 15.588457268119889 0.0
    vertex 4.658742811845403 17.38666487320322 1.9999999999999998
    vertex 9.000000000000021 15.58845726811988 1.9999999999999998
  endloop
endfacet
facet normal 0.6087614290087211 0.793353340291235 -1.0137245795037866e-15
  outer loop
    vertex 9.000000000000021 15.58845726811988 1.9999999999999998
    vertex 12.727922061357857 12.72792206135785 0.0
    vertex 9.000000000000007 15.588457268119889 0.0
  endloop
endfacet
facet normal 0.6087614290087211 0.793353340291235 -1.0137245795037866e-15
  outer loop
    vertex 12.727922061357857 12.72792206135785 0.0
    vertex 9.000000000000021 15.58845726811988 1.9999999999999998
    vertex 12.72792206135787 12.727922061357843 1.9999999999999998
  endloop
endfacet
facet normal 0.7933533402912357 0.6087614290087201 -1.4546510503736159e-15
  outer loop
    vertex 12.727922061357857 12.72792206135785 0.0
    vertex 15.588457268119901 8.999999999999986 1.9999999999999998
    vertex 15.588457268119901 8.999999999999986 0.0
  endloop
endfacet
facet normal 0.7933533402912357 0.6087614290087201 -1.4546510503736159e-15
  outer loop
    vertex 15.588457268119901 8.999999999999986 1.9999999999999998
    vertex 12.727922061357857 12.72792206135785 0.0
    vertex 12.72792206135787 12.727922061357843 1.9999999999999998
  endloop
endfacet
facet normal 0.9238795325112871 0.38268343236508895 -0.0
  outer loop
    vertex 15.588457268119901 8.999999999999986 0.0
    vertex 17.38666487320323 4.658742811845364 1.9999999999999998
    vertex 17.38666487320323 4.658742811845364 0.0
  endloop
endfacet
facet normal 0.9238795325112871 0.38268343236508895 -0.0
  outer loop
    vertex 17.38666487320323 4.658742811845364 1.9999999999999998
    vertex 15.588457268119901 8.999999999999986 0.0
    vertex 15.588457268119901 8.999999999999986 1.9999999999999998
  endloop
endfacet
facet normal -0.9238795325112867 -0.3826834323650898 -2.1794941072774236e-16
  outer loop
    vertex -17.38666487320323 -4.658742811845367 1.9999999999999998
    vertex -15.588457268119894 -8.999999999999995 0.0
    vertex -15.588457268119894 -8.999999999999995 1.9999999999999998
  endloop
endfacet
facet normal -0.9238795325112867 -0.3826834323650898 -2.1794941072774236e-16
  outer loop
    vertex -15.588457268119894 -8.999999999999995 0.0
    vertex -17.38666487320323 -4.658742811845367 1.9999999999999998
    vertex -17.386664873203227 -4.658742811845371 0.0
  endloop
endfacet
facet normal 0.13052619222005152 -0.9914448613738105 -3.736939073104235e-17
  outer loop
    vertex 4.658742811845381 -17.386664873203227 1.9999999999999998
    vertex -2.204364238465236e-15 -17.999999999999996 0.0
    vertex 4.658742811845366 -17.38666487320323 0.0
  endloop
endfacet
facet normal 0.13052619222005152 -0.9914448613738105 -3.736939073104235e-17
  outer loop
    vertex -2.204364238465236e-15 -17.999999999999996 0.0
    vertex 4.658742811845381 -17.386664873203227 1.9999999999999998
    vertex 5.789241538835891e-15 -17.999999999999996 1.9999999999999998
  endloop
endfacet
facet normal -0.38268343236508984 -0.9238795325112867 8.527741478065092e-16
  outer loop
    vertex -4.65874281184537 -17.386664873203227 1.9999999999999998
    vertex -9.000000000000005 -15.58845726811989 0.0
    vertex -4.658742811845378 -17.386664873203227 0.0
  endloop
endfacet
facet normal -0.38268343236508984 -0.9238795325112867 8.527741478065092e-16
  outer loop
    vertex -9.000000000000005 -15.58845726811989 0.0
    vertex -4.65874281184537 -17.386664873203227 1.9999999999999998
    vertex -8.999999999999998 -15.588457268119894 1.9999999999999998
  endloop
endfacet
facet normal -0.13052619222005168 -0.9914448613738105 5.386757025885818e-16
  outer loop
    vertex 5.789241538835891e-15 -17.999999999999996 1.9999999999999998
    vertex -4.658742811845378 -17.386664873203227 0.0
    vertex -2.204364238465236e-15 -17.999999999999996 0.0
  endloop
endfacet
facet normal -0.13052619222005168 -0.9914448613738105 5.386757025885818e-16
  outer loop
    vertex -4.658742811845378 -17.386664873203227 0.0
    vertex 5.789241538835891e-15 -17.999999999999996 1.9999999999999998
    vertex -4.65874281184537 -17.386664873203227 1.9999999999999998
  endloop
endfacet
facet normal -0.7933533402912357 -0.6087614290087199 0.0
  outer loop
    vertex -15.588457268119894 -8.999999999999995 1.9999999999999998
    vertex -12.727922061357857 -12.727922061357853 0.0
    vertex -12.727922061357857 -12.727922061357853 1.9999999999999998
  endloop
endfacet
facet normal -0.7933533402912357 -0.6087614290087199 0.0
  outer loop
    vertex -12.727922061357857 -12.727922061357853 0.0
    vertex -15.588457268119894 -8.999999999999995 1.9999999999999998
    vertex -15.588457268119894 -8.999999999999995 0.0
  endloop
endfacet
facet normal -0.6087614290087205 -0.7933533402912353 5.096091385533609e-16
  outer loop
    vertex -8.999999999999998 -15.588457268119894 1.9999999999999998
    vertex -12.727922061357857 -12.727922061357853 0.0
    vertex -9.000000000000005 -15.58845726811989 0.0
  endloop
endfacet
facet normal -0.6087614290087205 -0.7933533402912353 5.096091385533609e-16
  outer loop
    vertex -12.727922061357857 -12.727922061357853 0.0
    vertex -8.999999999999998 -15.588457268119894 1.9999999999999998
    vertex -12.727922061357857 -12.727922061357853 1.9999999999999998
  endloop
endfacet
facet normal -0.9914448613738105 0.13052619222005177 -1.278213531566127e-16
  outer loop
    vertex -17.999999999999996 5.0989850078831815e-15 1.9999999999999998
    vertex -17.386664873203227 4.658742811845377 0.0
    vertex -17.999999999999996 1.102182119232618e-15 0.0
  endloop
endfacet
facet normal -0.9914448613738105 0.13052619222005177 -1.278213531566127e-16
  outer loop
    vertex -17.386664873203227 4.658742811845377 0.0
    vertex -17.999999999999996 5.0989850078831815e-15 1.9999999999999998
    vertex -17.386664873203227 4.658742811845377 1.9999999999999998
  endloop
endfacet
facet normal -0.9238795325112867 0.3826834323650898 0.0
  outer loop
    vertex -15.588457268119894 9.0 1.9999999999999998
    vertex -17.386664873203227 4.658742811845377 0.0
    vertex -17.386664873203227 4.658742811845377 1.9999999999999998
  endloop
endfacet
facet normal -0.9238795325112867 0.3826834323650898 0.0
  outer loop
    vertex -17.386664873203227 4.658742811845377 0.0
    vertex -15.588457268119894 9.0 1.9999999999999998
    vertex -15.588457268119894 9.0 0.0
  endloop
endfacet
facet normal 0.9914448613738105 0.13052619222005132 -0.0
  outer loop
    vertex 17.38666487320323 4.658742811845364 0.0
    vertex 17.999999999999996 -3.3065463576978533e-15 1.9999999999999998
    vertex 17.999999999999996 -3.3065463576978533e-15 0.0
  endloop
endfacet
facet normal 0.9914448613738105 0.13052619222005132 -0.0
  outer loop
    vertex 17.999999999999996 -3.3065463576978533e-15 1.9999999999999998
    vertex 17.38666487320323 4.658742811845364 0.0
    vertex 17.38666487320323 4.658742811845364 1.9999999999999998
  endloop
endfacet
facet normal 0.9914448613738105 -0.130526192220052 -2.0001312227409306e-16
  outer loop
    vertex 17.999999999999996 -3.3065463576978533e-15 0.0
    vertex 17.386664873203227 -4.658742811845371 1.9999999999999998
    vertex 17.386664873203223 -4.658742811845387 0.0
  endloop
endfacet
facet normal 0.9914448613738105 -0.130526192220052 -2.0001312227409306e-16
  outer loop
    vertex 17.386664873203227 -4.658742811845371 1.9999999999999998
    vertex 17.999999999999996 -3.3065463576978533e-15 0.0
    vertex 17.999999999999996 -3.3065463576978533e-15 1.9999999999999998
  endloop
endfacet
facet normal 0.7933533402912353 -0.6087614290087205 1.0975149155953966e-15
  outer loop
    vertex 15.58845726811989 -9.000000000000007 0.0
    vertex 12.727922061357862 -12.727922061357845 1.9999999999999998
    vertex 12.727922061357848 -12.727922061357862 0.0
  endloop
endfacet
facet normal 0.7933533402912353 -0.6087614290087205 1.0975149155953966e-15
  outer loop
    vertex 12.727922061357862 -12.727922061357845 1.9999999999999998
    vertex 15.58845726811989 -9.000000000000007 0.0
    vertex 15.588457268119896 -8.999999999999991 1.9999999999999998
  endloop
endfacet
facet normal 0.6087614290087207 -0.7933533402912352 4.3817962206836023e-16
  outer loop
    vertex 12.727922061357862 -12.727922061357845 1.9999999999999998
    vertex 8.999999999999993 -15.588457268119896 0.0
    vertex 12.727922061357848 -12.727922061357862 0.0
  endloop
endfacet
facet normal 0.6087614290087207 -0.7933533402912352 4.3817962206836023e-16
  outer loop
    vertex 8.999999999999993 -15.588457268119896 0.0
    vertex 12.727922061357862 -12.727922061357845 1.9999999999999998
    vertex 9.000000000000009 -15.588457268119889 1.9999999999999998
  endloop
endfacet
facet normal 0.38268343236509 -0.9238795325112867 -3.0599827147670897e-16
  outer loop
    vertex 9.000000000000009 -15.588457268119889 1.9999999999999998
    vertex 4.658742811845366 -17.38666487320323 0.0
    vertex 8.999999999999993 -15.588457268119896 0.0
  endloop
endfacet
facet normal 0.38268343236509 -0.9238795325112867 -3.0599827147670897e-16
  outer loop
    vertex 4.658742811845366 -17.38666487320323 0.0
    vertex 9.000000000000009 -15.588457268119889 1.9999999999999998
    vertex 4.658742811845381 -17.386664873203227 1.9999999999999998
  endloop
endfacet
facet normal 0.923879532511287 -0.3826834323650898 1.0325413725082183e-15
  outer loop
    vertex 17.386664873203223 -4.658742811845387 0.0
    vertex 15.588457268119896 -8.999999999999991 1.9999999999999998
    vertex 15.58845726811989 -9.000000000000007 0.0
  endloop
endfacet
facet normal 0.923879532511287 -0.3826834323650898 1.0325413725082183e-15
  outer loop
    vertex 15.588457268119896 -8.999999999999991 1.9999999999999998
    vertex 17.386664873203223 -4.658742811845387 0.0
    vertex 17.386664873203227 -4.658742811845371 1.9999999999999998
  endloop
endfacet
facet normal -0.7933533402912356 0.6087614290087203 0.0
  outer loop
    vertex -12.727922061357857 12.727922061357857 1.9999999999999998
    vertex -15.588457268119894 9.0 0.0
    vertex -15.588457268119894 9.0 1.9999999999999998
  endloop
endfacet
facet normal -0.7933533402912356 0.6087614290087203 0.0
  outer loop
    vertex -15.588457268119894 9.0 0.0
    vertex -12.727922061357857 12.727922061357857 1.9999999999999998
    vertex -12.727922061357857 12.727922061357857 0.0
  endloop
endfacet
facet normal -0.3826834323650897 0.9238795325112868 -0.0
  outer loop
    vertex -8.999999999999998 15.588457268119894 1.9999999999999998
    vertex -4.658742811845372 17.386664873203227 0.0
    vertex -8.999999999999998 15.588457268119894 0.0
  endloop
endfacet
facet normal -0.3826834323650897 0.9238795325112868 -0.0
  outer loop
    vertex -4.658742811845372 17.386664873203227 0.0
    vertex -8.999999999999998 15.588457268119894 1.9999999999999998
    vertex -4.658742811845372 17.386664873203227 1.9999999999999998
  endloop
endfacet
facet normal -0.60876142900872 0.7933533402912357 -0.0
  outer loop
    vertex -12.727922061357857 12.727922061357857 1.9999999999999998
    vertex -8.999999999999998 15.588457268119894 0.0
    vertex -12.727922061357857 12.727922061357857 0.0
  endloop
endfacet
facet normal -0.60876142900872 0.7933533402912357 -0.0
  outer loop
    vertex -8.999999999999998 15.588457268119894 0.0
    vertex -12.727922061357857 12.727922061357857 1.9999999999999998
    vertex -8.999999999999998 15.588457268119894 1.9999999999999998
  endloop
endfacet
facet normal -0.1305261922200513 0.9914448613738105 1.186912565025685e-15
  outer loop
    vertex -4.658742811845372 17.386664873203227 1.9999999999999998
    vertex 0.0 17.999999999999996 0.0
    vertex -4.658742811845372 17.386664873203227 0.0
  endloop
endfacet
facet normal -0.1305261922200513 0.9914448613738105 1.186912565025685e-15
  outer loop
    vertex 0.0 17.999999999999996 0.0
    vertex -4.658742811845372 17.386664873203227 1.9999999999999998
    vertex 3.6383151586134974e-14 17.999999999999996 1.9999999999999998
  endloop
endfacet
facet normal -0.12776733885539687 0.9704892895828346 -0.20451417047924886
  outer loop
    vertex -8.928308440685267 33.320900726283504 80.28071880814228
    vertex 3.6383151586134974e-14 17.999999999999996 1.9999999999999998
    vertex -4.658742811845372 17.386664873203227 1.9999999999999998
  endloop
endfacet
facet normal -0.12776733885539687 0.9704892895828346 -0.20451417047924886
  outer loop
    vertex 3.6383151586134974e-14 17.999999999999996 1.9999999999999998
    vertex -8.928308440685267 33.320900726283504 80.28071880814228
    vertex 5.6046833840639464e-14 34.496334831730344 80.28071880814228
  endloop
endfacet
facet normal 0.12776733885539696 -0.9704892895828346 0.20451417047924886
  outer loop
    vertex 5.393185897872854e-14 32.496334831730344 80.28071880814228
    vertex -4.141104721640333 15.454813220625091 1.9999999999999998
    vertex 3.4103969648313634e-14 15.999999999999998 1.9999999999999998
  endloop
endfacet
facet normal 0.12776733885539696 -0.9704892895828346 0.20451417047924886
  outer loop
    vertex -4.141104721640333 15.454813220625091 1.9999999999999998
    vertex 5.393185897872854e-14 32.496334831730344 80.28071880814228
    vertex -8.410670350480228 31.389049073705365 80.28071880814228
  endloop
endfacet
facet normal -0.3745948835687081 0.9043520483071461 -0.20451417047924883
  outer loop
    vertex -17.248167415865158 29.874702301732473 80.28071880814228
    vertex -4.658742811845372 17.386664873203227 1.9999999999999998
    vertex -8.999999999999998 15.588457268119894 1.9999999999999998
  endloop
endfacet
facet normal -0.3745948835687081 0.9043520483071461 -0.20451417047924883
  outer loop
    vertex -4.658742811845372 17.386664873203227 1.9999999999999998
    vertex -17.248167415865158 29.874702301732473 80.28071880814228
    vertex -8.928308440685267 33.320900726283504 80.28071880814228
  endloop
endfacet
facet normal 0.3745948835687084 -0.9043520483071461 0.20451417047924886
  outer loop
    vertex -8.410670350480228 31.389049073705365 80.28071880814228
    vertex -7.999999999999999 13.856406460551018 1.9999999999999998
    vertex -4.141104721640333 15.454813220625091 1.9999999999999998
  endloop
endfacet
facet normal 0.3745948835687084 -0.9043520483071461 0.20451417047924886
  outer loop
    vertex -7.999999999999999 13.856406460551018 1.9999999999999998
    vertex -8.410670350480228 31.389049073705365 80.28071880814228
    vertex -16.248167415865165 28.14265149416359 80.28071880814228
  endloop
endfacet
facet normal -0.5958944060141255 0.776584709451749 -0.20451417047924886
  outer loop
    vertex -24.392592285598226 24.392592285598237 80.28071880814228
    vertex -8.999999999999998 15.588457268119894 1.9999999999999998
    vertex -12.727922061357857 12.727922061357857 1.9999999999999998
  endloop
endfacet
facet normal -0.5958944060141255 0.776584709451749 -0.20451417047924886
  outer loop
    vertex -8.999999999999998 15.588457268119894 1.9999999999999998
    vertex -24.392592285598226 24.392592285598237 80.28071880814228
    vertex -17.248167415865158 29.874702301732473 80.28071880814228
  endloop
endfacet
facet normal 0.5958944060141258 -0.7765847094517488 0.2045141704792488
  outer loop
    vertex -16.248167415865165 28.14265149416359 80.28071880814228
    vertex -11.313708498984763 11.313708498984761 1.9999999999999998
    vertex -7.999999999999999 13.856406460551018 1.9999999999999998
  endloop
endfacet
facet normal 0.5958944060141258 -0.7765847094517488 0.2045141704792488
  outer loop
    vertex -11.313708498984763 11.313708498984761 1.9999999999999998
    vertex -16.248167415865165 28.14265149416359 80.28071880814228
    vertex -22.978378723225127 22.978378723225134 80.28071880814228
  endloop
endfacet
facet normal -0.7765847094517485 0.5958944060141261 -0.20451417047924886
  outer loop
    vertex -29.87470230173247 17.248167415865176 80.28071880814228
    vertex -12.727922061357857 12.727922061357857 1.9999999999999998
    vertex -15.588457268119894 9.0 1.9999999999999998
  endloop
endfacet
facet normal -0.7765847094517485 0.5958944060141261 -0.20451417047924886
  outer loop
    vertex -12.727922061357857 12.727922061357857 1.9999999999999998
    vertex -29.87470230173247 17.248167415865176 80.28071880814228
    vertex -24.392592285598226 24.392592285598237 80.28071880814228
  endloop
endfacet
facet normal 0.7765847094517487 -0.5958944060141261 0.20451417047924877
  outer loop
    vertex -11.313708498984763 11.313708498984761 1.9999999999999998
    vertex -28.142651494163584 16.24816741586517 80.28071880814228
    vertex -13.856406460551018 8.000000000000002 1.9999999999999998
  endloop
endfacet
facet normal 0.7765847094517487 -0.5958944060141261 0.20451417047924877
  outer loop
    vertex -28.142651494163584 16.24816741586517 80.28071880814228
    vertex -11.313708498984763 11.313708498984761 1.9999999999999998
    vertex -22.978378723225127 22.978378723225134 80.28071880814228
  endloop
endfacet
facet normal -0.904352048307146 0.37459488356870846 -0.20451417047924889
  outer loop
    vertex -33.320900726283504 8.928308440685278 80.28071880814228
    vertex -15.588457268119894 9.0 1.9999999999999998
    vertex -17.386664873203227 4.658742811845377 1.9999999999999998
  endloop
endfacet
facet normal -0.904352048307146 0.37459488356870846 -0.20451417047924889
  outer loop
    vertex -15.588457268119894 9.0 1.9999999999999998
    vertex -33.320900726283504 8.928308440685278 80.28071880814228
    vertex -29.87470230173247 17.248167415865176 80.28071880814228
  endloop
endfacet
facet normal 0.9043520483071461 -0.3745948835687081 0.20451417047924875
  outer loop
    vertex -13.856406460551018 8.000000000000002 1.9999999999999998
    vertex -31.38904907370536 8.410670350480236 80.28071880814228
    vertex -15.454813220625091 4.141104721640335 1.9999999999999998
  endloop
endfacet
facet normal 0.9043520483071461 -0.3745948835687081 0.20451417047924875
  outer loop
    vertex -31.38904907370536 8.410670350480236 80.28071880814228
    vertex -13.856406460551018 8.000000000000002 1.9999999999999998
    vertex -28.142651494163584 16.24816741586517 80.28071880814228
  endloop
endfacet
facet normal -0.9704892895828346 0.1277673388553976 -0.2045141704792489
  outer loop
    vertex -34.496334831730344 1.2689849171465539e-14 80.28071880814228
    vertex -17.386664873203227 4.658742811845377 1.9999999999999998
    vertex -17.999999999999996 5.0989850078831815e-15 1.9999999999999998
  endloop
endfacet
facet normal -0.9704892895828346 0.1277673388553976 -0.2045141704792489
  outer loop
    vertex -17.386664873203227 4.658742811845377 1.9999999999999998
    vertex -34.496334831730344 1.2689849171465539e-14 80.28071880814228
    vertex -33.320900726283504 8.928308440685278 80.28071880814228
  endloop
endfacet
facet normal 0.9704892895828345 -0.12776733885539773 0.2045141704792488
  outer loop
    vertex -15.454813220625091 4.141104721640335 1.9999999999999998
    vertex -32.49633483173034 1.2689849171465539e-14 80.28071880814228
    vertex -15.999999999999998 4.229949723821846e-15 1.9999999999999998
  endloop
endfacet
facet normal 0.9704892895828345 -0.12776733885539773 0.2045141704792488
  outer loop
    vertex -32.49633483173034 1.2689849171465539e-14 80.28071880814228
    vertex -15.454813220625091 4.141104721640335 1.9999999999999998
    vertex -31.38904907370536 8.410670350480236 80.28071880814228
  endloop
endfacet
facet normal -0.9704892895828346 -0.12776733885539754 -0.20451417047924889
  outer loop
    vertex -34.496334831730344 1.2689849171465539e-14 80.28071880814228
    vertex -17.38666487320323 -4.658742811845367 1.9999999999999998
    vertex -33.320900726283504 -8.928308440685264 80.28071880814228
  endloop
endfacet
facet normal -0.9704892895828346 -0.12776733885539754 -0.20451417047924889
  outer loop
    vertex -17.38666487320323 -4.658742811845367 1.9999999999999998
    vertex -34.496334831730344 1.2689849171465539e-14 80.28071880814228
    vertex -17.999999999999996 5.0989850078831815e-15 1.9999999999999998
  endloop
endfacet
facet normal 0.9704892895828345 0.1277673388553973 0.20451417047924875
  outer loop
    vertex -15.454813220625093 -4.141104721640326 1.9999999999999998
    vertex -32.49633483173034 1.2689849171465539e-14 80.28071880814228
    vertex -31.38904907370536 -8.41067035048022 80.28071880814228
  endloop
endfacet
facet normal 0.9704892895828345 0.1277673388553973 0.20451417047924875
  outer loop
    vertex -32.49633483173034 1.2689849171465539e-14 80.28071880814228
    vertex -15.454813220625093 -4.141104721640326 1.9999999999999998
    vertex -15.999999999999998 4.229949723821846e-15 1.9999999999999998
  endloop
endfacet
facet normal -0.904352048307146 -0.3745948835687084 -0.20451417047924883
  outer loop
    vertex -33.320900726283504 -8.928308440685264 80.28071880814228
    vertex -15.588457268119894 -8.999999999999995 1.9999999999999998
    vertex -29.87470230173247 -17.248167415865158 80.28071880814228
  endloop
endfacet
facet normal -0.904352048307146 -0.3745948835687084 -0.20451417047924883
  outer loop
    vertex -15.588457268119894 -8.999999999999995 1.9999999999999998
    vertex -33.320900726283504 -8.928308440685264 80.28071880814228
    vertex -17.38666487320323 -4.658742811845367 1.9999999999999998
  endloop
endfacet
facet normal 0.904352048307146 0.3745948835687088 0.2045141704792488
  outer loop
    vertex -13.856406460551016 -7.9999999999999964 1.9999999999999998
    vertex -31.38904907370536 -8.41067035048022 80.28071880814228
    vertex -28.142651494163584 -16.248167415865154 80.28071880814228
  endloop
endfacet
facet normal 0.904352048307146 0.3745948835687088 0.2045141704792488
  outer loop
    vertex -31.38904907370536 -8.41067035048022 80.28071880814228
    vertex -13.856406460551016 -7.9999999999999964 1.9999999999999998
    vertex -15.454813220625093 -4.141104721640326 1.9999999999999998
  endloop
endfacet
facet normal -0.7765847094517491 -0.5958944060141256 -0.20451417047924886
  outer loop
    vertex -29.87470230173247 -17.248167415865158 80.28071880814228
    vertex -12.727922061357857 -12.727922061357853 1.9999999999999998
    vertex -24.39259228559823 -24.392592285598223 80.28071880814228
  endloop
endfacet
facet normal -0.7765847094517491 -0.5958944060141256 -0.20451417047924886
  outer loop
    vertex -12.727922061357857 -12.727922061357853 1.9999999999999998
    vertex -29.87470230173247 -17.248167415865158 80.28071880814228
    vertex -15.588457268119894 -8.999999999999995 1.9999999999999998
  endloop
endfacet
facet normal 0.776584709451749 0.5958944060141256 0.20451417047924872
  outer loop
    vertex -11.313708498984761 -11.31370849898476 1.9999999999999998
    vertex -28.142651494163584 -16.248167415865154 80.28071880814228
    vertex -22.97837872322513 -22.97837872322512 80.28071880814228
  endloop
endfacet
facet normal 0.776584709451749 0.5958944060141256 0.20451417047924872
  outer loop
    vertex -28.142651494163584 -16.248167415865154 80.28071880814228
    vertex -11.313708498984761 -11.31370849898476 1.9999999999999998
    vertex -13.856406460551016 -7.9999999999999964 1.9999999999999998
  endloop
endfacet
facet normal -0.5958944060141258 -0.7765847094517488 -0.20451417047924883
  outer loop
    vertex -17.24816741586516 -29.87470230173247 80.28071880814228
    vertex -12.727922061357857 -12.727922061357853 1.9999999999999998
    vertex -8.999999999999998 -15.588457268119894 1.9999999999999998
  endloop
endfacet
facet normal -0.5958944060141258 -0.7765847094517488 -0.20451417047924883
  outer loop
    vertex -12.727922061357857 -12.727922061357853 1.9999999999999998
    vertex -17.24816741586516 -29.87470230173247 80.28071880814228
    vertex -24.39259228559823 -24.392592285598223 80.28071880814228
  endloop
endfacet
facet normal 0.595894406014126 0.7765847094517487 0.20451417047924872
  outer loop
    vertex -22.97837872322513 -22.97837872322512 80.28071880814228
    vertex -7.999999999999998 -13.856406460551016 1.9999999999999998
    vertex -11.313708498984761 -11.31370849898476 1.9999999999999998
  endloop
endfacet
facet normal 0.595894406014126 0.7765847094517487 0.20451417047924872
  outer loop
    vertex -7.999999999999998 -13.856406460551016 1.9999999999999998
    vertex -22.97837872322513 -22.97837872322512 80.28071880814228
    vertex -16.248167415865158 -28.142651494163584 80.28071880814228
  endloop
endfacet
facet normal -0.37459488356870807 -0.9043520483071462 -0.20451417047924889
  outer loop
    vertex -8.928308440685269 -33.3209007262835 80.28071880814228
    vertex -8.999999999999998 -15.588457268119894 1.9999999999999998
    vertex -4.65874281184537 -17.386664873203227 1.9999999999999998
  endloop
endfacet
facet normal -0.37459488356870807 -0.9043520483071462 -0.20451417047924889
  outer loop
    vertex -8.999999999999998 -15.588457268119894 1.9999999999999998
    vertex -8.928308440685269 -33.3209007262835 80.28071880814228
    vertex -17.24816741586516 -29.87470230173247 80.28071880814228
  endloop
endfacet
facet normal 0.37459488356870785 0.9043520483071464 0.20451417047924877
  outer loop
    vertex -16.248167415865158 -28.142651494163584 80.28071880814228
    vertex -4.141104721640327 -15.454813220625088 1.9999999999999998
    vertex -7.999999999999998 -13.856406460551016 1.9999999999999998
  endloop
endfacet
facet normal 0.37459488356870785 0.9043520483071464 0.20451417047924877
  outer loop
    vertex -4.141104721640327 -15.454813220625088 1.9999999999999998
    vertex -16.248167415865158 -28.142651494163584 80.28071880814228
    vertex -8.410670350480228 -31.389049073705355 80.28071880814228
  endloop
endfacet
facet normal -0.1277673388553977 -0.9704892895828344 -0.20451417047924883
  outer loop
    vertex 0.0 -34.496334831730344 80.28071880814228
    vertex -4.65874281184537 -17.386664873203227 1.9999999999999998
    vertex 5.789241538835891e-15 -17.999999999999996 1.9999999999999998
  endloop
endfacet
facet normal -0.1277673388553977 -0.9704892895828344 -0.20451417047924883
  outer loop
    vertex -4.65874281184537 -17.386664873203227 1.9999999999999998
    vertex 0.0 -34.496334831730344 80.28071880814228
    vertex -8.928308440685269 -33.3209007262835 80.28071880814228
  endloop
endfacet
facet normal 0.12776733885539773 0.9704892895828346 0.20451417047924877
  outer loop
    vertex -8.410670350480228 -31.389049073705355 80.28071880814228
    vertex 6.3449245857327695e-15 -15.999999999999996 1.9999999999999998
    vertex -4.141104721640327 -15.454813220625088 1.9999999999999998
  endloop
endfacet
facet normal 0.12776733885539773 0.9704892895828346 0.20451417047924877
  outer loop
    vertex 6.3449245857327695e-15 -15.999999999999996 1.9999999999999998
    vertex -8.410670350480228 -31.389049073705355 80.28071880814228
    vertex 1.4099832412739487e-15 -32.49633483173034 80.28071880814228
  endloop
endfacet
facet normal 0.1277673388553975 -0.9704892895828346 -0.20451417047924889
  outer loop
    vertex 8.928308440685287 -33.3209007262835 80.28071880814228
    vertex 5.789241538835891e-15 -17.999999999999996 1.9999999999999998
    vertex 4.658742811845381 -17.386664873203227 1.9999999999999998
  endloop
endfacet
facet normal 0.1277673388553975 -0.9704892895828346 -0.20451417047924889
  outer loop
    vertex 5.789241538835891e-15 -17.999999999999996 1.9999999999999998
    vertex 8.928308440685287 -33.3209007262835 80.28071880814228
    vertex 0.0 -34.496334831730344 80.28071880814228
  endloop
endfacet
facet normal -0.1277673388553975 0.9704892895828346 0.2045141704792488
  outer loop
    vertex 1.4099832412739487e-15 -32.49633483173034 80.28071880814228
    vertex 4.141104721640338 -15.454813220625088 1.9999999999999998
    vertex 6.3449245857327695e-15 -15.999999999999996 1.9999999999999998
  endloop
endfacet
facet normal -0.1277673388553975 0.9704892895828346 0.2045141704792488
  outer loop
    vertex 4.141104721640338 -15.454813220625088 1.9999999999999998
    vertex 1.4099832412739487e-15 -32.49633483173034 80.28071880814228
    vertex 8.410670350480244 -31.389049073705355 80.28071880814228
  endloop
endfacet
facet normal 0.37459488356870874 -0.9043520483071459 -0.20451417047924883
  outer loop
    vertex 17.248167415865186 -29.87470230173246 80.28071880814228
    vertex 4.658742811845381 -17.386664873203227 1.9999999999999998
    vertex 9.000000000000009 -15.588457268119889 1.9999999999999998
  endloop
endfacet
facet normal 0.37459488356870874 -0.9043520483071459 -0.20451417047924883
  outer loop
    vertex 4.658742811845381 -17.386664873203227 1.9999999999999998
    vertex 17.248167415865186 -29.87470230173246 80.28071880814228
    vertex 8.928308440685287 -33.3209007262835 80.28071880814228
  endloop
endfacet
facet normal -0.37459488356870896 0.9043520483071458 0.20451417047924875
  outer loop
    vertex 8.410670350480244 -31.389049073705355 80.28071880814228
    vertex 8.000000000000007 -13.85640646055101 1.9999999999999998
    vertex 4.141104721640338 -15.454813220625088 1.9999999999999998
  endloop
endfacet
facet normal -0.37459488356870896 0.9043520483071458 0.20451417047924875
  outer loop
    vertex 8.000000000000007 -13.85640646055101 1.9999999999999998
    vertex 8.410670350480244 -31.389049073705355 80.28071880814228
    vertex 16.248167415865183 -28.142651494163573 80.28071880814228
  endloop
endfacet
facet normal 0.595894406014127 -0.776584709451748 -0.20451417047924883
  outer loop
    vertex 24.392592285598237 -24.39259228559821 80.28071880814228
    vertex 9.000000000000009 -15.588457268119889 1.9999999999999998
    vertex 12.727922061357862 -12.727922061357845 1.9999999999999998
  endloop
endfacet
facet normal 0.595894406014127 -0.776584709451748 -0.20451417047924883
  outer loop
    vertex 9.000000000000009 -15.588457268119889 1.9999999999999998
    vertex 24.392592285598237 -24.39259228559821 80.28071880814228
    vertex 17.248167415865186 -29.87470230173246 80.28071880814228
  endloop
endfacet
facet normal -0.5958944060141268 0.7765847094517481 0.20451417047924875
  outer loop
    vertex 16.248167415865183 -28.142651494163573 80.28071880814228
    vertex 11.313708498984766 -11.31370849898475 1.9999999999999998
    vertex 8.000000000000007 -13.85640646055101 1.9999999999999998
  endloop
endfacet
facet normal -0.5958944060141268 0.7765847094517481 0.20451417047924875
  outer loop
    vertex 11.313708498984766 -11.31370849898475 1.9999999999999998
    vertex 16.248167415865183 -28.142651494163573 80.28071880814228
    vertex 22.97837872322514 -22.97837872322511 80.28071880814228
  endloop
endfacet
facet normal 0.7765847094517488 -0.5958944060141256 -0.20451417047924877
  outer loop
    vertex 12.727922061357862 -12.727922061357845 1.9999999999999998
    vertex 29.87470230173247 -17.248167415865158 80.28071880814228
    vertex 24.392592285598237 -24.39259228559821 80.28071880814228
  endloop
endfacet
facet normal 0.7765847094517488 -0.5958944060141256 -0.20451417047924877
  outer loop
    vertex 29.87470230173247 -17.248167415865158 80.28071880814228
    vertex 12.727922061357862 -12.727922061357845 1.9999999999999998
    vertex 15.588457268119896 -8.999999999999991 1.9999999999999998
  endloop
endfacet
facet normal -0.7765847094517491 0.5958944060141254 0.20451417047924872
  outer loop
    vertex 28.142651494163584 -16.248167415865158 80.28071880814228
    vertex 11.313708498984766 -11.31370849898475 1.9999999999999998
    vertex 22.97837872322514 -22.97837872322511 80.28071880814228
  endloop
endfacet
facet normal -0.7765847094517491 0.5958944060141254 0.20451417047924872
  outer loop
    vertex 11.313708498984766 -11.31370849898475 1.9999999999999998
    vertex 28.142651494163584 -16.248167415865158 80.28071880814228
    vertex 13.856406460551018 -7.999999999999991 1.9999999999999998
  endloop
endfacet
facet normal 0.9043520483071461 -0.3745948835687083 -0.20451417047924883
  outer loop
    vertex 15.588457268119896 -8.999999999999991 1.9999999999999998
    vertex 33.3209007262835 -8.928308440685269 80.28071880814228
    vertex 29.87470230173247 -17.248167415865158 80.28071880814228
  endloop
endfacet
facet normal 0.9043520483071461 -0.3745948835687083 -0.20451417047924883
  outer loop
    vertex 33.3209007262835 -8.928308440685269 80.28071880814228
    vertex 15.588457268119896 -8.999999999999991 1.9999999999999998
    vertex 17.386664873203227 -4.658742811845371 1.9999999999999998
  endloop
endfacet
facet normal -0.9043520483071463 0.37459488356870774 0.2045141704792488
  outer loop
    vertex 31.389049073705355 -8.410670350480228 80.28071880814228
    vertex 13.856406460551018 -7.999999999999991 1.9999999999999998
    vertex 28.142651494163584 -16.248167415865158 80.28071880814228
  endloop
endfacet
facet normal -0.9043520483071463 0.37459488356870774 0.2045141704792488
  outer loop
    vertex 13.856406460551018 -7.999999999999991 1.9999999999999998
    vertex 31.389049073705355 -8.410670350480228 80.28071880814228
    vertex 15.454813220625088 -4.14110472164033 1.9999999999999998
  endloop
endfacet
facet normal 0.9704892895828345 -0.12776733885539784 -0.20451417047924883
  outer loop
    vertex 17.386664873203227 -4.658742811845371 1.9999999999999998
    vertex 34.496334831730344 -1.127986593019159e-14 80.28071880814228
    vertex 33.3209007262835 -8.928308440685269 80.28071880814228
  endloop
endfacet
facet normal 0.9704892895828345 -0.12776733885539784 -0.20451417047924883
  outer loop
    vertex 34.496334831730344 -1.127986593019159e-14 80.28071880814228
    vertex 17.386664873203227 -4.658742811845371 1.9999999999999998
    vertex 17.999999999999996 -3.3065463576978533e-15 1.9999999999999998
  endloop
endfacet
facet normal -0.9704892895828345 0.12776733885539784 0.2045141704792488
  outer loop
    vertex 32.49633483173034 -8.459899447643692e-15 80.28071880814228
    vertex 15.454813220625088 -4.14110472164033 1.9999999999999998
    vertex 31.389049073705355 -8.410670350480228 80.28071880814228
  endloop
endfacet
facet normal -0.9704892895828345 0.12776733885539784 0.2045141704792488
  outer loop
    vertex 15.454813220625088 -4.14110472164033 1.9999999999999998
    vertex 32.49633483173034 -8.459899447643692e-15 80.28071880814228
    vertex 15.999999999999996 -2.114974861910923e-15 1.9999999999999998
  endloop
endfacet
facet normal 0.9704892895828345 0.1277673388553971 -0.20451417047924883
  outer loop
    vertex 17.999999999999996 -3.3065463576978533e-15 1.9999999999999998
    vertex 33.320900726283504 8.928308440685257 80.28071880814228
    vertex 34.496334831730344 -1.127986593019159e-14 80.28071880814228
  endloop
endfacet
facet normal 0.9704892895828345 0.1277673388553971 -0.20451417047924883
  outer loop
    vertex 33.320900726283504 8.928308440685257 80.28071880814228
    vertex 17.999999999999996 -3.3065463576978533e-15 1.9999999999999998
    vertex 17.38666487320323 4.658742811845364 1.9999999999999998
  endloop
endfacet
facet normal -0.9704892895828346 -0.12776733885539696 0.2045141704792488
  outer loop
    vertex 31.38904907370536 8.410670350480213 80.28071880814228
    vertex 15.999999999999996 -2.114974861910923e-15 1.9999999999999998
    vertex 32.49633483173034 -8.459899447643692e-15 80.28071880814228
  endloop
endfacet
facet normal -0.9704892895828346 -0.12776733885539696 0.2045141704792488
  outer loop
    vertex 15.999999999999996 -2.114974861910923e-15 1.9999999999999998
    vertex 31.38904907370536 8.410670350480213 80.28071880814228
    vertex 15.454813220625091 4.141104721640325 1.9999999999999998
  endloop
endfacet
facet normal 0.9043520483071464 0.37459488356870746 -0.20451417047924889
  outer loop
    vertex 15.588457268119901 8.999999999999986 1.9999999999999998
    vertex 33.320900726283504 8.928308440685257 80.28071880814228
    vertex 17.38666487320323 4.658742811845364 1.9999999999999998
  endloop
endfacet
facet normal 0.9043520483071464 0.37459488356870746 -0.20451417047924889
  outer loop
    vertex 33.320900726283504 8.928308440685257 80.28071880814228
    vertex 15.588457268119901 8.999999999999986 1.9999999999999998
    vertex 29.874702301732487 17.248167415865144 80.28071880814228
  endloop
endfacet
facet normal -0.9043520483071464 -0.3745948835687077 0.20451417047924877
  outer loop
    vertex 31.38904907370536 8.410670350480213 80.28071880814228
    vertex 13.856406460551025 7.9999999999999885 1.9999999999999998
    vertex 15.454813220625091 4.141104721640325 1.9999999999999998
  endloop
endfacet
facet normal -0.9043520483071464 -0.3745948835687077 0.20451417047924877
  outer loop
    vertex 13.856406460551025 7.9999999999999885 1.9999999999999998
    vertex 31.38904907370536 8.410670350480213 80.28071880814228
    vertex 28.142651494163594 16.24816741586514 80.28071880814228
  endloop
endfacet
facet normal 0.7765847094517494 0.595894406014125 -0.20451417047924886
  outer loop
    vertex 12.72792206135787 12.727922061357843 1.9999999999999998
    vertex 29.874702301732487 17.248167415865144 80.28071880814228
    vertex 15.588457268119901 8.999999999999986 1.9999999999999998
  endloop
endfacet
facet normal 0.7765847094517494 0.595894406014125 -0.20451417047924886
  outer loop
    vertex 29.874702301732487 17.248167415865144 80.28071880814228
    vertex 12.72792206135787 12.727922061357843 1.9999999999999998
    vertex 24.39259228559826 24.3925922855982 80.28071880814228
  endloop
endfacet
facet normal -0.7765847094517492 -0.5958944060141252 0.20451417047924875
  outer loop
    vertex 28.142651494163594 16.24816741586514 80.28071880814228
    vertex 11.313708498984774 11.313708498984749 1.9999999999999998
    vertex 13.856406460551025 7.9999999999999885 1.9999999999999998
  endloop
endfacet
facet normal -0.7765847094517492 -0.5958944060141252 0.20451417047924875
  outer loop
    vertex 11.313708498984774 11.313708498984749 1.9999999999999998
    vertex 28.142651494163594 16.24816741586514 80.28071880814228
    vertex 22.978378723225156 22.9783787232251 80.28071880814228
  endloop
endfacet
facet normal 0.5958944060141266 0.7765847094517483 -0.20451417047924886
  outer loop
    vertex 17.248167415865215 29.87470230173244 80.28071880814228
    vertex 12.72792206135787 12.727922061357843 1.9999999999999998
    vertex 9.000000000000021 15.58845726811988 1.9999999999999998
  endloop
endfacet
facet normal 0.5958944060141266 0.7765847094517483 -0.20451417047924886
  outer loop
    vertex 12.72792206135787 12.727922061357843 1.9999999999999998
    vertex 17.248167415865215 29.87470230173244 80.28071880814228
    vertex 24.39259228559826 24.3925922855982 80.28071880814228
  endloop
endfacet
facet normal -0.5958944060141268 -0.7765847094517481 0.20451417047924875
  outer loop
    vertex 22.978378723225156 22.9783787232251 80.28071880814228
    vertex 8.00000000000002 13.856406460551003 1.9999999999999998
    vertex 11.313708498984774 11.313708498984749 1.9999999999999998
  endloop
endfacet
facet normal -0.5958944060141268 -0.7765847094517481 0.20451417047924875
  outer loop
    vertex 8.00000000000002 13.856406460551003 1.9999999999999998
    vertex 22.978378723225156 22.9783787232251 80.28071880814228
    vertex 16.248167415865208 28.142651494163555 80.28071880814228
  endloop
endfacet
facet normal 0.37459488356871046 0.9043520483071453 -0.2045141704792489
  outer loop
    vertex 8.928308440685337 33.32090072628349 80.28071880814228
    vertex 9.000000000000021 15.58845726811988 1.9999999999999998
    vertex 4.658742811845403 17.38666487320322 1.9999999999999998
  endloop
endfacet
facet normal 0.37459488356871046 0.9043520483071453 -0.2045141704792489
  outer loop
    vertex 9.000000000000021 15.58845726811988 1.9999999999999998
    vertex 8.928308440685337 33.32090072628349 80.28071880814228
    vertex 17.248167415865215 29.87470230173244 80.28071880814228
  endloop
endfacet
facet normal -0.37459488356870985 -0.9043520483071456 0.2045141704792488
  outer loop
    vertex 16.248167415865208 28.142651494163555 80.28071880814228
    vertex 4.141104721640358 15.454813220625086 1.9999999999999998
    vertex 8.00000000000002 13.856406460551003 1.9999999999999998
  endloop
endfacet
facet normal -0.37459488356870985 -0.9043520483071456 0.2045141704792488
  outer loop
    vertex 4.141104721640358 15.454813220625086 1.9999999999999998
    vertex 16.248167415865208 28.142651494163555 80.28071880814228
    vertex 8.410670350480286 31.389049073705344 80.28071880814228
  endloop
endfacet
facet normal 0.12776733885539934 0.9704892895828343 -0.20451417047924886
  outer loop
    vertex 5.6046833840639464e-14 34.496334831730344 80.28071880814228
    vertex 4.658742811845403 17.38666487320322 1.9999999999999998
    vertex 3.6383151586134974e-14 17.999999999999996 1.9999999999999998
  endloop
endfacet
facet normal 0.12776733885539934 0.9704892895828343 -0.20451417047924886
  outer loop
    vertex 4.658742811845403 17.38666487320322 1.9999999999999998
    vertex 5.6046833840639464e-14 34.496334831730344 80.28071880814228
    vertex 8.928308440685337 33.32090072628349 80.28071880814228
  endloop
endfacet
facet normal -0.12776733885539948 -0.9704892895828343 0.20451417047924872
  outer loop
    vertex 8.410670350480286 31.389049073705344 80.28071880814228
    vertex 3.4103969648313634e-14 15.999999999999998 1.9999999999999998
    vertex 4.141104721640358 15.454813220625086 1.9999999999999998
  endloop
endfacet
facet normal -0.12776733885539948 -0.9704892895828343 0.20451417047924872
  outer loop
    vertex 3.4103969648313634e-14 15.999999999999998 1.9999999999999998
    vertex 8.410670350480286 31.389049073705344 80.28071880814228
    vertex 5.393185897872854e-14 32.496334831730344 80.28071880814228
  endloop
endfacet
facet normal -0.0 -0.0 1.0
  outer loop
    vertex -33.320900726283504 -8.928308440685264 80.28071880814228
    vertex -33.320900726283504 8.928308440685278 80.28071880814228
    vertex -34.496334831730344 1.2689849171465539e-14 80.28071880814228
  endloop
endfacet
facet normal -0.0 -0.0 1.0
  outer loop
    vertex -33.320900726283504 8.928308440685278 80.28071880814228
    vertex -33.320900726283504 -8.928308440685264 80.28071880814228
    vertex -32.49633483173034 1.2689849171465539e-14 80.28071880814228
  endloop
endfacet
facet normal -0.0 -0.0 1.0
  outer loop
    vertex -32.49633483173034 1.2689849171465539e-14 80.28071880814228
    vertex -33.320900726283504 -8.928308440685264 80.28071880814228
    vertex -31.38904907370536 -8.41067035048022 80.28071880814228
  endloop
endfacet
facet normal -0.0 -0.0 1.0
  outer loop
    vertex -31.38904907370536 -8.41067035048022 80.28071880814228
    vertex -33.320900726283504 -8.928308440685264 80.28071880814228
    vertex -29.87470230173247 -17.248167415865158 80.28071880814228
  endloop
endfacet
facet normal -0.0 -0.0 1.0
  outer loop
    vertex -31.38904907370536 -8.41067035048022 80.28071880814228
    vertex -29.87470230173247 -17.248167415865158 80.28071880814228
    vertex -28.142651494163584 -16.248167415865154 80.28071880814228
  endloop
endfacet
facet normal -0.0 -0.0 1.0
  outer loop
    vertex -28.142651494163584 -16.248167415865154 80.28071880814228
    vertex -29.87470230173247 -17.248167415865158 80.28071880814228
    vertex -24.39259228559823 -24.392592285598223 80.28071880814228
  endloop
endfacet
facet normal -0.0 -0.0 1.0
  outer loop
    vertex -28.142651494163584 -16.248167415865154 80.28071880814228
    vertex -24.39259228559823 -24.392592285598223 80.28071880814228
    vertex -22.97837872322513 -22.97837872322512 80.28071880814228
  endloop
endfacet
facet normal -0.0 -0.0 1.0
  outer loop
    vertex -22.97837872322513 -22.97837872322512 80.28071880814228
    vertex -24.39259228559823 -24.392592285598223 80.28071880814228
    vertex -17.24816741586516 -29.87470230173247 80.28071880814228
  endloop
endfacet
facet normal -0.0 -0.0 1.0
  outer loop
    vertex -22.97837872322513 -22.97837872322512 80.28071880814228
    vertex -17.24816741586516 -29.87470230173247 80.28071880814228
    vertex -16.248167415865158 -28.142651494163584 80.28071880814228
  endloop
endfacet
facet normal -0.0 -0.0 1.0
  outer loop
    vertex -16.248167415865158 -28.142651494163584 80.28071880814228
    vertex -17.24816741586516 -29.87470230173247 80.28071880814228
    vertex -8.928308440685269 -33.3209007262835 80.28071880814228
  endloop
endfacet
facet normal -0.0 -0.0 1.0
  outer loop
    vertex -16.248167415865158 -28.142651494163584 80.28071880814228
    vertex -8.928308440685269 -33.3209007262835 80.28071880814228
    vertex -8.410670350480228 -31.389049073705355 80.28071880814228
  endloop
endfacet
facet normal -0.0 -0.0 1.0
  outer loop
    vertex -8.410670350480228 -31.389049073705355 80.28071880814228
    vertex -8.928308440685269 -33.3209007262835 80.28071880814228
    vertex 0.0 -34.496334831730344 80.28071880814228
  endloop
endfacet
facet normal -0.0 -0.0 1.0
  outer loop
    vertex -8.410670350480228 -31.389049073705355 80.28071880814228
    vertex 0.0 -34.496334831730344 80.28071880814228
    vertex 1.4099832412739487e-15 -32.49633483173034 80.28071880814228
  endloop
endfacet
facet normal -0.0 -0.0 1.0
  outer loop
    vertex 1.4099832412739487e-15 -32.49633483173034 80.28071880814228
    vertex 0.0 -34.496334831730344 80.28071880814228
    vertex 8.928308440685287 -33.3209007262835 80.28071880814228
  endloop
endfacet
facet normal -0.0 -0.0 1.0
  outer loop
    vertex 1.4099832412739487e-15 -32.49633483173034 80.28071880814228
    vertex 8.928308440685287 -33.3209007262835 80.28071880814228
    vertex 8.410670350480244 -31.389049073705355 80.28071880814228
  endloop
endfacet
facet normal -0.0 -0.0 1.0
  outer loop
    vertex 8.410670350480244 -31.389049073705355 80.28071880814228
    vertex 8.928308440685287 -33.3209007262835 80.28071880814228
    vertex 16.248167415865183 -28.142651494163573 80.28071880814228
  endloop
endfacet
facet normal -0.0 -0.0 1.0
  outer loop
    vertex 16.248167415865183 -28.142651494163573 80.28071880814228
    vertex 8.928308440685287 -33.3209007262835 80.28071880814228
    vertex 17.248167415865186 -29.87470230173246 80.28071880814228
  endloop
endfacet
facet normal -0.0 -0.0 1.0
  outer loop
    vertex 16.248167415865183 -28.142651494163573 80.28071880814228
    vertex 17.248167415865186 -29.87470230173246 80.28071880814228
    vertex 22.97837872322514 -22.97837872322511 80.28071880814228
  endloop
endfacet
facet normal -0.0 -0.0 1.0
  outer loop
    vertex 22.97837872322514 -22.97837872322511 80.28071880814228
    vertex 17.248167415865186 -29.87470230173246 80.28071880814228
    vertex 24.392592285598237 -24.39259228559821 80.28071880814228
  endloop
endfacet
facet normal -0.0 -0.0 1.0
  outer loop
    vertex 22.97837872322514 -22.97837872322511 80.28071880814228
    vertex 24.392592285598237 -24.39259228559821 80.28071880814228
    vertex 28.142651494163584 -16.248167415865158 80.28071880814228
  endloop
endfacet
facet normal -0.0 -0.0 1.0
  outer loop
    vertex 28.142651494163584 -16.248167415865158 80.28071880814228
    vertex 24.392592285598237 -24.39259228559821 80.28071880814228
    vertex 29.87470230173247 -17.248167415865158 80.28071880814228
  endloop
endfacet
facet normal -0.0 -0.0 1.0
  outer loop
    vertex 28.142651494163584 -16.248167415865158 80.28071880814228
    vertex 29.87470230173247 -17.248167415865158 80.28071880814228
    vertex 31.389049073705355 -8.410670350480228 80.28071880814228
  endloop
endfacet
facet normal -0.0 -0.0 1.0
  outer loop
    vertex 31.389049073705355 -8.410670350480228 80.28071880814228
    vertex 29.87470230173247 -17.248167415865158 80.28071880814228
    vertex 33.3209007262835 -8.928308440685269 80.28071880814228
  endloop
endfacet
facet normal -0.0 -0.0 1.0
  outer loop
    vertex 31.389049073705355 -8.410670350480228 80.28071880814228
    vertex 33.3209007262835 -8.928308440685269 80.28071880814228
    vertex 32.49633483173034 -8.459899447643692e-15 80.28071880814228
  endloop
endfacet
facet normal -0.0 -0.0 1.0
  outer loop
    vertex -33.320900726283504 8.928308440685278 80.28071880814228
    vertex -31.38904907370536 8.410670350480236 80.28071880814228
    vertex -29.87470230173247 17.248167415865176 80.28071880814228
  endloop
endfacet
facet normal -0.0 -0.0 1.0
  outer loop
    vertex -31.38904907370536 8.410670350480236 80.28071880814228
    vertex -33.320900726283504 8.928308440685278 80.28071880814228
    vertex -32.49633483173034 1.2689849171465539e-14 80.28071880814228
  endloop
endfacet
facet normal -0.0 -0.0 1.0
  outer loop
    vertex -29.87470230173247 17.248167415865176 80.28071880814228
    vertex -31.38904907370536 8.410670350480236 80.28071880814228
    vertex -28.142651494163584 16.24816741586517 80.28071880814228
  endloop
endfacet
facet normal -0.0 -0.0 1.0
  outer loop
    vertex -29.87470230173247 17.248167415865176 80.28071880814228
    vertex -28.142651494163584 16.24816741586517 80.28071880814228
    vertex -24.392592285598226 24.392592285598237 80.28071880814228
  endloop
endfacet
facet normal -0.0 -0.0 1.0
  outer loop
    vertex -24.392592285598226 24.392592285598237 80.28071880814228
    vertex -28.142651494163584 16.24816741586517 80.28071880814228
    vertex -22.978378723225127 22.978378723225134 80.28071880814228
  endloop
endfacet
facet normal -0.0 -0.0 1.0
  outer loop
    vertex -24.392592285598226 24.392592285598237 80.28071880814228
    vertex -22.978378723225127 22.978378723225134 80.28071880814228
    vertex -17.248167415865158 29.874702301732473 80.28071880814228
  endloop
endfacet
facet normal -0.0 -0.0 1.0
  outer loop
    vertex -17.248167415865158 29.874702301732473 80.28071880814228
    vertex -22.978378723225127 22.978378723225134 80.28071880814228
    vertex -16.248167415865165 28.14265149416359 80.28071880814228
  endloop
endfacet
facet normal -0.0 -0.0 1.0
  outer loop
    vertex -17.248167415865158 29.874702301732473 80.28071880814228
    vertex -16.248167415865165 28.14265149416359 80.28071880814228
    vertex -8.928308440685267 33.320900726283504 80.28071880814228
  endloop
endfacet
facet normal -0.0 -0.0 1.0
  outer loop
    vertex -8.928308440685267 33.320900726283504 80.28071880814228
    vertex -16.248167415865165 28.14265149416359 80.28071880814228
    vertex -8.410670350480228 31.389049073705365 80.28071880814228
  endloop
endfacet
facet normal -0.0 -0.0 1.0
  outer loop
    vertex -8.928308440685267 33.320900726283504 80.28071880814228
    vertex -8.410670350480228 31.389049073705365 80.28071880814228
    vertex 5.6046833840639464e-14 34.496334831730344 80.28071880814228
  endloop
endfacet
facet normal -0.0 -0.0 1.0
  outer loop
    vertex 5.6046833840639464e-14 34.496334831730344 80.28071880814228
    vertex -8.410670350480228 31.389049073705365 80.28071880814228
    vertex 5.393185897872854e-14 32.496334831730344 80.28071880814228
  endloop
endfacet
facet normal -0.0 -0.0 1.0
  outer loop
    vertex 5.6046833840639464e-14 34.496334831730344 80.28071880814228
    vertex 5.393185897872854e-14 32.496334831730344 80.28071880814228
    vertex 8.410670350480286 31.389049073705344 80.28071880814228
  endloop
endfacet
facet normal -0.0 -0.0 1.0
  outer loop
    vertex 5.6046833840639464e-14 34.496334831730344 80.28071880814228
    vertex 8.410670350480286 31.389049073705344 80.28071880814228
    vertex 8.928308440685337 33.32090072628349 80.28071880814228
  endloop
endfacet
facet normal -0.0 -0.0 1.0
  outer loop
    vertex 8.928308440685337 33.32090072628349 80.28071880814228
    vertex 8.410670350480286 31.389049073705344 80.28071880814228
    vertex 16.248167415865208 28.142651494163555 80.28071880814228
  endloop
endfacet
facet normal -0.0 -0.0 1.0
  outer loop
    vertex 8.928308440685337 33.32090072628349 80.28071880814228
    vertex 16.248167415865208 28.142651494163555 80.28071880814228
    vertex 17.248167415865215 29.87470230173244 80.28071880814228
  endloop
endfacet
facet normal -0.0 -0.0 1.0
  outer loop
    vertex 17.248167415865215 29.87470230173244 80.28071880814228
    vertex 16.248167415865208 28.142651494163555 80.28071880814228
    vertex 22.978378723225156 22.9783787232251 80.28071880814228
  endloop
endfacet
facet normal -0.0 -0.0 1.0
  outer loop
    vertex 17.248167415865215 29.87470230173244 80.28071880814228
    vertex 22.978378723225156 22.9783787232251 80.28071880814228
    vertex 24.39259228559826 24.3925922855982 80.28071880814228
  endloop
endfacet
facet normal -0.0 -0.0 1.0
  outer loop
    vertex 24.39259228559826 24.3925922855982 80.28071880814228
    vertex 22.978378723225156 22.9783787232251 80.28071880814228
    vertex 28.142651494163594 16.24816741586514 80.28071880814228
  endloop
endfacet
facet normal -0.0 -0.0 1.0
  outer loop
    vertex 24.39259228559826 24.3925922855982 80.28071880814228
    vertex 28.142651494163594 16.24816741586514 80.28071880814228
    vertex 29.874702301732487 17.248167415865144 80.28071880814228
  endloop
endfacet
facet normal -0.0 -0.0 1.0
  outer loop
    vertex 29.874702301732487 17.248167415865144 80.28071880814228
    vertex 28.142651494163594 16.24816741586514 80.28071880814228
    vertex 31.38904907370536 8.410670350480213 80.28071880814228
  endloop
endfacet
facet normal -0.0 -0.0 1.0
  outer loop
    vertex 29.874702301732487 17.248167415865144 80.28071880814228
    vertex 31.38904907370536 8.410670350480213 80.28071880814228
    vertex 33.320900726283504 8.928308440685257 80.28071880814228
  endloop
endfacet
facet normal -0.0 -0.0 1.0
  outer loop
    vertex 33.320900726283504 8.928308440685257 80.28071880814228
    vertex 31.38904907370536 8.410670350480213 80.28071880814228
    vertex 32.49633483173034 -8.459899447643692e-15 80.28071880814228
  endloop
endfacet
facet normal -0.0 -0.0 1.0
  outer loop
    vertex 33.320900726283504 8.928308440685257 80.28071880814228
    vertex 32.49633483173034 -8.459899447643692e-15 80.28071880814228
    vertex 33.3209007262835 -8.928308440685269 80.28071880814228
  endloop
endfacet
facet normal -0.0 -0.0 1.0
  outer loop
    vertex 33.320900726283504 8.928308440685257 80.28071880814228
    vertex 33.3209007262835 -8.928308440685269 80.28071880814228
    vertex 34.496334831730344 -1.127986593019159e-14 80.28071880814228
  endloop
endfacet
facet normal -0.0 -0.0 1.0
  outer loop
    vertex -11.313708498984761 -11.31370849898476 1.9999999999999998
    vertex -10.625184089179752 -2.847009496127727 1.9999999999999998
    vertex -11.0 6.735557395310442e-16 1.9999999999999998
  endloop
endfacet
facet normal -0.0 -0.0 1.0
  outer loop
    vertex -10.625184089179752 -2.847009496127727 1.9999999999999998
    vertex -11.313708498984761 -11.31370849898476 1.9999999999999998
    vertex -7.999999999999998 -13.856406460551016 1.9999999999999998
  endloop
endfacet
facet normal -0.0 -0.0 1.0
  outer loop
    vertex -10.625184089179752 -2.847009496127727 1.9999999999999998
    vertex -7.999999999999998 -13.856406460551016 1.9999999999999998
    vertex -9.526279441628825 -5.499999999999997 1.9999999999999998
  endloop
endfacet
facet normal -0.0 -0.0 1.0
  outer loop
    vertex -9.526279441628825 -5.499999999999997 1.9999999999999998
    vertex -7.999999999999998 -13.856406460551016 1.9999999999999998
    vertex -7.7781745930520225 -7.7781745930520225 1.9999999999999998
  endloop
endfacet
facet normal -0.0 -0.0 1.0
  outer loop
    vertex -7.7781745930520225 -7.7781745930520225 1.9999999999999998
    vertex -7.999999999999998 -13.856406460551016 1.9999999999999998
    vertex -4.141104721640327 -15.454813220625088 1.9999999999999998
  endloop
endfacet
facet normal -0.0 -0.0 1.0
  outer loop
    vertex -7.7781745930520225 -7.7781745930520225 1.9999999999999998
    vertex -4.141104721640327 -15.454813220625088 1.9999999999999998
    vertex -5.5000000000000036 -9.526279441628823 1.9999999999999998
  endloop
endfacet
facet normal -0.0 -0.0 1.0
  outer loop
    vertex -5.5000000000000036 -9.526279441628823 1.9999999999999998
    vertex -4.141104721640327 -15.454813220625088 1.9999999999999998
    vertex -2.8470094961277312 -10.62518408917975 1.9999999999999998
  endloop
endfacet
facet normal -0.0 -0.0 1.0
  outer loop
    vertex -2.8470094961277312 -10.62518408917975 1.9999999999999998
    vertex -4.141104721640327 -15.454813220625088 1.9999999999999998
    vertex 6.3449245857327695e-15 -15.999999999999996 1.9999999999999998
  endloop
endfacet
facet normal -0.0 -0.0 1.0
  outer loop
    vertex -2.8470094961277312 -10.62518408917975 1.9999999999999998
    vertex 6.3449245857327695e-15 -15.999999999999996 1.9999999999999998
    vertex -1.3471114790620884e-15 -11.0 1.9999999999999998
  endloop
endfacet
facet normal -0.0 -0.0 1.0
  outer loop
    vertex -1.3471114790620884e-15 -11.0 1.9999999999999998
    vertex 6.3449245857327695e-15 -15.999999999999996 1.9999999999999998
    vertex 2.8470094961277237 -10.625184089179752 1.9999999999999998
  endloop
endfacet
facet normal -0.0 -0.0 1.0
  outer loop
    vertex 2.8470094961277237 -10.625184089179752 1.9999999999999998
    vertex 6.3449245857327695e-15 -15.999999999999996 1.9999999999999998
    vertex 4.141104721640338 -15.454813220625088 1.9999999999999998
  endloop
endfacet
facet normal -0.0 -0.0 1.0
  outer loop
    vertex 2.8470094961277237 -10.625184089179752 1.9999999999999998
    vertex 4.141104721640338 -15.454813220625088 1.9999999999999998
    vertex 5.499999999999997 -9.526279441628827 1.9999999999999998
  endloop
endfacet
facet normal -0.0 -0.0 1.0
  outer loop
    vertex 5.499999999999997 -9.526279441628827 1.9999999999999998
    vertex 4.141104721640338 -15.454813220625088 1.9999999999999998
    vertex 8.000000000000007 -13.85640646055101 1.9999999999999998
  endloop
endfacet
facet normal -0.0 -0.0 1.0
  outer loop
    vertex 5.499999999999997 -9.526279441628827 1.9999999999999998
    vertex 8.000000000000007 -13.85640646055101 1.9999999999999998
    vertex 7.778174593052018 -7.778174593052027 1.9999999999999998
  endloop
endfacet
facet normal -0.0 -0.0 1.0
  outer loop
    vertex 7.778174593052018 -7.778174593052027 1.9999999999999998
    vertex 8.000000000000007 -13.85640646055101 1.9999999999999998
    vertex 9.526279441628823 -5.500000000000004 1.9999999999999998
  endloop
endfacet
facet normal -0.0 -0.0 1.0
  outer loop
    vertex 9.526279441628823 -5.500000000000004 1.9999999999999998
    vertex 8.000000000000007 -13.85640646055101 1.9999999999999998
    vertex 11.313708498984766 -11.31370849898475 1.9999999999999998
  endloop
endfacet
facet normal -0.0 -0.0 1.0
  outer loop
    vertex 9.526279441628823 -5.500000000000004 1.9999999999999998
    vertex 11.313708498984766 -11.31370849898475 1.9999999999999998
    vertex 10.625184089179749 -2.8470094961277366 1.9999999999999998
  endloop
endfacet
facet normal -0.0 -0.0 1.0
  outer loop
    vertex 10.625184089179749 -2.8470094961277366 1.9999999999999998
    vertex 11.313708498984766 -11.31370849898475 1.9999999999999998
    vertex 11.0 -2.0206672185931327e-15 1.9999999999999998
  endloop
endfacet
facet normal -0.0 -0.0 1.0
  outer loop
    vertex -15.454813220625093 -4.141104721640326 1.9999999999999998
    vertex -15.454813220625091 4.141104721640335 1.9999999999999998
    vertex -15.999999999999998 4.229949723821846e-15 1.9999999999999998
  endloop
endfacet
facet normal -0.0 -0.0 1.0
  outer loop
    vertex -15.454813220625091 4.141104721640335 1.9999999999999998
    vertex -15.454813220625093 -4.141104721640326 1.9999999999999998
    vertex -13.856406460551016 -7.9999999999999964 1.9999999999999998
  endloop
endfacet
facet normal -0.0 -0.0 1.0
  outer loop
    vertex -15.454813220625091 4.141104721640335 1.9999999999999998
    vertex -13.856406460551016 -7.9999999999999964 1.9999999999999998
    vertex -13.856406460551018 8.000000000000002 1.9999999999999998
  endloop
endfacet
facet normal -0.0 -0.0 1.0
  outer loop
    vertex -13.856406460551018 8.000000000000002 1.9999999999999998
    vertex -13.856406460551016 -7.9999999999999964 1.9999999999999998
    vertex -11.313708498984763 11.313708498984761 1.9999999999999998
  endloop
endfacet
facet normal -0.0 -0.0 1.0
  outer loop
    vertex -11.313708498984763 11.313708498984761 1.9999999999999998
    vertex -13.856406460551016 -7.9999999999999964 1.9999999999999998
    vertex -11.313708498984761 -11.31370849898476 1.9999999999999998
  endloop
endfacet
facet normal -0.0 -0.0 1.0
  outer loop
    vertex -11.313708498984763 11.313708498984761 1.9999999999999998
    vertex -11.313708498984761 -11.31370849898476 1.9999999999999998
    vertex -11.0 6.735557395310442e-16 1.9999999999999998
  endloop
endfacet
facet normal -0.0 -0.0 1.0
  outer loop
    vertex -11.313708498984763 11.313708498984761 1.9999999999999998
    vertex -11.0 6.735557395310442e-16 1.9999999999999998
    vertex -10.62518408917975 2.8470094961277304 1.9999999999999998
  endloop
endfacet
facet normal -0.0 -0.0 1.0
  outer loop
    vertex -11.313708498984763 11.313708498984761 1.9999999999999998
    vertex -10.62518408917975 2.8470094961277304 1.9999999999999998
    vertex -7.999999999999999 13.856406460551018 1.9999999999999998
  endloop
endfacet
facet normal -0.0 -0.0 1.0
  outer loop
    vertex -7.999999999999999 13.856406460551018 1.9999999999999998
    vertex -10.62518408917975 2.8470094961277304 1.9999999999999998
    vertex -9.526279441628823 5.500000000000001 1.9999999999999998
  endloop
endfacet
facet normal -0.0 -0.0 1.0
  outer loop
    vertex -7.999999999999999 13.856406460551018 1.9999999999999998
    vertex -9.526279441628823 5.500000000000001 1.9999999999999998
    vertex -7.7781745930520225 7.7781745930520225 1.9999999999999998
  endloop
endfacet
facet normal -0.0 -0.0 1.0
  outer loop
    vertex -7.999999999999999 13.856406460551018 1.9999999999999998
    vertex -7.7781745930520225 7.7781745930520225 1.9999999999999998
    vertex -4.141104721640333 15.454813220625091 1.9999999999999998
  endloop
endfacet
facet normal -0.0 -0.0 1.0
  outer loop
    vertex -4.141104721640333 15.454813220625091 1.9999999999999998
    vertex -7.7781745930520225 7.7781745930520225 1.9999999999999998
    vertex -5.499999999999999 9.526279441628825 1.9999999999999998
  endloop
endfacet
facet normal -0.0 -0.0 1.0
  outer loop
    vertex -4.141104721640333 15.454813220625091 1.9999999999999998
    vertex -5.499999999999999 9.526279441628825 1.9999999999999998
    vertex -2.8470094961277277 10.625184089179752 1.9999999999999998
  endloop
endfacet
facet normal -0.0 -0.0 1.0
  outer loop
    vertex -4.141104721640333 15.454813220625091 1.9999999999999998
    vertex -2.8470094961277277 10.625184089179752 1.9999999999999998
    vertex 3.4103969648313634e-14 15.999999999999998 1.9999999999999998
  endloop
endfacet
facet normal -0.0 -0.0 1.0
  outer loop
    vertex 3.4103969648313634e-14 15.999999999999998 1.9999999999999998
    vertex -2.8470094961277277 10.625184089179752 1.9999999999999998
    vertex 0.0 11.0 1.9999999999999998
  endloop
endfacet
facet normal -0.0 -0.0 1.0
  outer loop
    vertex 3.4103969648313634e-14 15.999999999999998 1.9999999999999998
    vertex 0.0 11.0 1.9999999999999998
    vertex 2.847009496127737 10.625184089179749 1.9999999999999998
  endloop
endfacet
facet normal -0.0 -0.0 1.0
  outer loop
    vertex 3.4103969648313634e-14 15.999999999999998 1.9999999999999998
    vertex 2.847009496127737 10.625184089179749 1.9999999999999998
    vertex 4.141104721640358 15.454813220625086 1.9999999999999998
  endloop
endfacet
facet normal -0.0 -0.0 1.0
  outer loop
    vertex 4.141104721640358 15.454813220625086 1.9999999999999998
    vertex 2.847009496127737 10.625184089179749 1.9999999999999998
    vertex 5.500000000000004 9.526279441628823 1.9999999999999998
  endloop
endfacet
facet normal -0.0 -0.0 1.0
  outer loop
    vertex 4.141104721640358 15.454813220625086 1.9999999999999998
    vertex 5.500000000000004 9.526279441628823 1.9999999999999998
    vertex 8.00000000000002 13.856406460551003 1.9999999999999998
  endloop
endfacet
facet normal -0.0 -0.0 1.0
  outer loop
    vertex 8.00000000000002 13.856406460551003 1.9999999999999998
    vertex 5.500000000000004 9.526279441628823 1.9999999999999998
    vertex 7.778174593052023 7.778174593052021 1.9999999999999998
  endloop
endfacet
facet normal -0.0 -0.0 1.0
  outer loop
    vertex 8.00000000000002 13.856406460551003 1.9999999999999998
    vertex 7.778174593052023 7.778174593052021 1.9999999999999998
    vertex 9.52627944162883 5.499999999999993 1.9999999999999998
  endloop
endfacet
facet normal -0.0 -0.0 1.0
  outer loop
    vertex 8.00000000000002 13.856406460551003 1.9999999999999998
    vertex 9.52627944162883 5.499999999999993 1.9999999999999998
    vertex 11.313708498984774 11.313708498984749 1.9999999999999998
  endloop
endfacet
facet normal -0.0 -0.0 1.0
  outer loop
    vertex 11.313708498984774 11.313708498984749 1.9999999999999998
    vertex 9.52627944162883 5.499999999999993 1.9999999999999998
    vertex 10.625184089179752 2.8470094961277232 1.9999999999999998
  endloop
endfacet
facet normal -0.0 -0.0 1.0
  outer loop
    vertex 11.313708498984774 11.313708498984749 1.9999999999999998
    vertex 10.625184089179752 2.8470094961277232 1.9999999999999998
    vertex 11.0 -2.0206672185931327e-15 1.9999999999999998
  endloop
endfacet
facet normal -0.0 -0.0 1.0
  outer loop
    vertex 11.313708498984774 11.313708498984749 1.9999999999999998
    vertex 11.0 -2.0206672185931327e-15 1.9999999999999998
    vertex 11.313708498984766 -11.31370849898475 1.9999999999999998
  endloop
endfacet
facet normal -0.0 -0.0 1.0
  outer loop
    vertex 11.313708498984774 11.313708498984749 1.9999999999999998
    vertex 11.313708498984766 -11.31370849898475 1.9999999999999998
    vertex 13.856406460551018 -7.999999999999991 1.9999999999999998
  endloop
endfacet
facet normal -0.0 -0.0 1.0
  outer loop
    vertex 11.313708498984774 11.313708498984749 1.9999999999999998
    vertex 13.856406460551018 -7.999999999999991 1.9999999999999998
    vertex 13.856406460551025 7.9999999999999885 1.9999999999999998
  endloop
endfacet
facet normal -0.0 -0.0 1.0
  outer loop
    vertex 13.856406460551025 7.9999999999999885 1.9999999999999998
    vertex 13.856406460551018 -7.999999999999991 1.9999999999999998
    vertex 15.454813220625088 -4.14110472164033 1.9999999999999998
  endloop
endfacet
facet normal -0.0 -0.0 1.0
  outer loop
    vertex 13.856406460551025 7.9999999999999885 1.9999999999999998
    vertex 15.454813220625088 -4.14110472164033 1.9999999999999998
    vertex 15.454813220625091 4.141104721640325 1.9999999999999998
  endloop
endfacet
facet normal -0.0 -0.0 1.0
  outer loop
    vertex 15.454813220625091 4.141104721640325 1.9999999999999998
    vertex 15.454813220625088 -4.14110472164033 1.9999999999999998
    vertex 15.999999999999996 -2.114974861910923e-15 1.9999999999999998
  endloop
endfacet
endsolid Untitled-5f8cb659
